<svg width="142" height="33" viewBox="0 0 142 33" fill="none" xmlns="http://www.w3.org/2000/svg">
<path d="M19.5312 20.6328C13.8672 28.237 8.93229 32.0391 4.72656 32.0391C2.68229 32.0391 1.38021 31.4922 0.820312 30.3984C0.664062 30.0859 0.585938 29.7669 0.585938 29.4414C0.585938 29.1029 0.644531 28.8294 0.761719 28.6211C0.878906 28.4128 1.02865 28.2435 1.21094 28.1133C1.53646 27.8659 1.9401 27.7422 2.42188 27.7422C2.61719 27.7422 2.83203 27.8138 3.06641 27.957C3.28776 28.1003 3.39844 28.3151 3.39844 28.6016C3.39844 28.888 3.28776 29.1289 3.06641 29.3242C2.84505 29.5195 2.5651 29.6172 2.22656 29.6172C1.875 29.6172 1.58854 29.5521 1.36719 29.4219V29.5195C1.36719 30.1055 1.64714 30.5807 2.20703 30.9453C2.75391 31.3099 3.41146 31.4922 4.17969 31.4922C4.9349 31.4922 5.56641 31.4401 6.07422 31.3359C6.58203 31.2188 7.10286 31.0104 7.63672 30.7109C8.18359 30.3984 8.76302 29.9688 9.375 29.4219C10 28.875 10.6901 28.1719 11.4453 27.3125C12.2135 26.4401 13.0729 25.3854 14.0234 24.1484L17.2852 19.7734C16.556 19.2917 16.1914 18.7188 16.1914 18.0547C16.1914 17.4948 16.4453 17.013 16.9531 16.6094C17.4219 16.2318 17.8841 16.043 18.3398 16.043C18.8086 16.043 19.043 16.1081 19.043 16.2383C19.043 16.3034 18.9648 16.3555 18.8086 16.3945C18.1966 16.4987 17.7344 16.7396 17.4219 17.1172C17.1224 17.4818 16.9727 17.8659 16.9727 18.2695C16.9727 18.6732 17.1875 19.0182 17.6172 19.3047L17.8906 18.9336C20.026 16.056 21.7839 13.9141 23.1641 12.5078C25.3906 10.2161 27.5651 8.34115 29.6875 6.88281L30.4883 6.35547C28.9779 5.43099 26.6536 4.96875 23.5156 4.96875C20.3646 4.96875 17.3047 5.58073 14.3359 6.80469C11.6276 7.91146 9.42057 9.3763 7.71484 11.1992C6.03516 12.9831 5.22135 14.7409 5.27344 16.4727C5.29948 17.4492 5.61198 18.1914 6.21094 18.6992C6.70573 19.1159 7.3112 19.3242 8.02734 19.3242C8.74349 19.3242 9.4987 19.1159 10.293 18.6992C11.1003 18.2826 11.875 17.7487 12.6172 17.0977C13.3594 16.4336 14.056 15.6979 14.707 14.8906C15.3711 14.0703 15.9505 13.2565 16.4453 12.4492C17.513 10.7305 18.1055 9.38932 18.2227 8.42578C18.2617 7.98307 18.3398 7.76172 18.457 7.76172C18.5872 7.76172 18.6589 7.8138 18.6719 7.91797C18.6849 8.00911 18.6979 8.29557 18.7109 8.77734C18.724 9.25911 18.6263 9.92969 18.418 10.7891C18.2096 11.6484 17.8906 12.5078 17.4609 13.3672C17.0443 14.2135 16.5169 15.0273 15.8789 15.8086C15.2539 16.5898 14.5378 17.2799 13.7305 17.8789C11.9596 19.194 10.0065 19.8516 7.87109 19.8516C7.07682 19.8516 6.36719 19.5521 5.74219 18.9531C5.05208 18.2891 4.69401 17.4622 4.66797 16.4727C4.62891 15.4831 4.85677 14.487 5.35156 13.4844C5.84635 12.4818 6.53646 11.5378 7.42188 10.6523C8.32031 9.75391 9.375 8.93359 10.5859 8.19141C11.8099 7.4362 13.125 6.79167 14.5312 6.25781C17.5 5.11198 20.5208 4.53906 23.5938 4.53906C26.6797 4.53906 29.1992 5.01432 31.1523 5.96484C32.7279 5.09245 33.9062 4.65625 34.6875 4.65625C34.9349 4.65625 35.0586 4.70833 35.0586 4.8125C35.0716 4.91667 35.0456 4.99479 34.9805 5.04688C34.9284 5.09896 34.7396 5.15104 34.4141 5.20312C33.6458 5.34635 32.793 5.72396 31.8555 6.33594C33.9518 7.57292 35 9.26562 35 11.4141C35 13.0026 34.388 14.5456 33.1641 16.043C31.9792 17.4753 30.4232 18.6406 28.4961 19.5391C26.5169 20.4505 24.4792 20.9062 22.3828 20.9062C21.3542 20.9062 20.4036 20.8151 19.5312 20.6328ZM19.9023 20.1445C20.7227 20.3138 21.4974 20.3984 22.2266 20.3984C22.9688 20.3984 23.7305 20.3008 24.5117 20.1055C25.306 19.9102 26.0807 19.6237 26.8359 19.2461C27.6042 18.8555 28.3398 18.3737 29.043 17.8008C29.7461 17.2279 30.3646 16.5573 30.8984 15.7891C32.0703 14.1224 32.6562 12.2409 32.6562 10.1445C32.6562 8.76432 32.1549 7.65755 31.1523 6.82422C29.7201 7.86589 28.2292 9.30469 26.6797 11.1406C25.1302 12.9766 23.8411 14.6237 22.8125 16.082L19.9023 20.1445ZM28.0273 30.8477C28.0273 31.2773 28.3398 31.4922 28.9648 31.4922C29.5898 31.4922 30.2539 31.3294 30.957 31.0039C31.6732 30.6654 32.3763 30.2422 33.0664 29.7344C33.7695 29.2266 34.4466 28.6732 35.0977 28.0742C35.7487 27.4622 36.3411 26.8828 36.875 26.3359L38.2227 24.8906C38.5872 24.474 38.8346 24.2005 38.9648 24.0703L39.3555 24.4023C39.2122 24.5456 38.9453 24.832 38.5547 25.2617C38.1771 25.6914 37.7083 26.1862 37.1484 26.7461C36.6016 27.306 35.9831 27.8984 35.293 28.5234C34.6159 29.1484 33.9062 29.7214 33.1641 30.2422C31.4323 31.4401 29.9154 32.0391 28.6133 32.0391C28.0664 32.0391 27.6172 31.8893 27.2656 31.5898C26.901 31.2904 26.7188 30.9714 26.7188 30.6328C26.7188 30.2812 26.7383 30.0013 26.7773 29.793C26.8034 29.5846 26.8685 29.3503 26.9727 29.0898C27.0768 28.8164 27.2266 28.5039 27.4219 28.1523C27.6172 27.7878 27.8776 27.3516 28.2031 26.8438L31.1914 22.4297L46.2891 0.847656C47.2266 0.977865 48.1315 0.977865 49.0039 0.847656C36.582 18.1133 30.1497 27.0781 29.707 27.7422C29.2643 28.3932 28.9388 28.888 28.7305 29.2266C28.5221 29.5521 28.3659 29.819 28.2617 30.0273C28.1055 30.3398 28.0273 30.6133 28.0273 30.8477ZM46.6211 32.0391C45.319 32.0391 44.668 31.6354 44.668 30.8281C44.668 30.1641 45.0456 29.3307 45.8008 28.3281L47.0312 26.7656L46.8359 26.6875C44.6484 29.3828 42.5846 31.0755 40.6445 31.7656C40.1107 31.9479 39.6484 32.0391 39.2578 32.0391C37.6562 32.0391 36.8555 31.1862 36.8555 29.4805C36.8555 27.4753 37.6562 25.5612 39.2578 23.7383C41.6276 20.9779 44.0104 19.3438 46.4062 18.8359C47.1224 18.6927 47.7344 18.6211 48.2422 18.6211C48.75 18.6211 49.1471 18.6602 49.4336 18.7383C49.7331 18.8034 49.9935 18.901 50.2148 19.0312C50.6836 19.3307 50.918 19.7018 50.918 20.1445C50.918 20.5742 50.8398 20.9844 50.6836 21.375L52.5977 19.0117C52.9492 19.1159 53.2747 19.168 53.5742 19.168C54.3424 19.168 54.8958 19.1419 55.2344 19.0898L48.6523 27.0195C47.0898 28.8424 46.3086 30.125 46.3086 30.8672C46.3086 31.2839 46.556 31.4922 47.0508 31.4922C47.5456 31.4922 48.112 31.3424 48.75 31.043C49.401 30.7435 50.0456 30.3594 50.6836 29.8906C51.3216 29.4219 51.9401 28.901 52.5391 28.3281C53.151 27.7552 53.7109 27.1953 54.2188 26.6484C54.7396 26.1016 55.1953 25.5938 55.5859 25.125L56.5234 24.0703L56.9336 24.4023L55.9375 25.5352C52.1875 29.8711 49.082 32.0391 46.6211 32.0391ZM41.2109 25.0078C39.375 27.2344 38.457 29.0573 38.457 30.4766C38.457 31.1276 38.75 31.4531 39.3359 31.4531C41.237 31.4531 43.9779 29.3503 47.5586 25.1445L49.1992 23.1719C49.9805 21.987 50.3711 21.1276 50.3711 20.5938C50.3711 19.6823 49.9154 19.2266 49.0039 19.2266C47.7669 19.2266 45.9896 20.2812 43.6719 22.3906C42.8776 23.1198 42.0573 23.9922 41.2109 25.0078ZM57.1094 31.6289C56.7578 31.5638 56.3672 31.5312 55.9375 31.5312C55.2474 31.5312 54.6419 31.5964 54.1211 31.7266L60.8984 22.0391C61.7448 20.8542 62.181 20.151 62.207 19.9297C62.2591 19.5 62.1224 19.2852 61.7969 19.2852C61.3151 19.2852 60.1172 20.4766 58.2031 22.8594L56.9531 24.4023C56.849 24.4544 56.7383 24.4284 56.6211 24.3242C56.5169 24.207 56.4909 24.1224 56.543 24.0703C56.9206 23.6667 57.3438 23.1589 57.8125 22.5469C58.2943 21.9219 58.7956 21.3229 59.3164 20.75C60.5924 19.3307 61.6536 18.6211 62.5 18.6211C63.9323 18.6211 64.388 19.3568 63.8672 20.8281C63.763 21.1406 63.5352 21.5443 63.1836 22.0391L59.082 27.7422L59.1797 27.957C62.4609 24.3633 64.7917 21.987 66.1719 20.8281C67.487 19.7344 68.4635 19.0964 69.1016 18.9141C69.7526 18.7188 70.2799 18.6211 70.6836 18.6211C71.1003 18.6211 71.4518 18.6797 71.7383 18.7969C72.0378 18.9141 72.2786 19.0638 72.4609 19.2461C72.7995 19.5846 72.9622 19.9948 72.9492 20.4766C72.9492 20.9453 72.8581 21.4271 72.6758 21.9219C72.5065 22.4167 72.2135 23.0026 71.7969 23.6797C70.9245 25.0729 69.4531 26.8893 67.3828 29.1289C66.5234 30.0273 66.0742 30.5547 66.0352 30.7109C65.9961 30.8542 65.9766 30.9648 65.9766 31.043C65.9766 31.3424 66.3737 31.4922 67.168 31.4922C67.9753 31.4922 68.724 31.3294 69.4141 31.0039C70.1172 30.6654 70.8008 30.2422 71.4648 29.7344C72.1419 29.2266 72.7799 28.6732 73.3789 28.0742C73.9909 27.4622 74.5378 26.8828 75.0195 26.3359C75.5013 25.776 75.9049 25.2943 76.2305 24.8906C76.556 24.474 76.7773 24.2005 76.8945 24.0703L77.3047 24.4023C77.1745 24.5456 76.9401 24.832 76.6016 25.2617C76.263 25.6914 75.8398 26.1862 75.332 26.7461C74.8372 27.306 74.2708 27.8984 73.6328 28.5234C73.0078 29.1484 72.3438 29.7214 71.6406 30.2422C70 31.4401 68.5156 32.0391 67.1875 32.0391C66.0156 32.0391 65.2018 31.7461 64.7461 31.1602C64.6029 30.9779 64.5312 30.763 64.5312 30.5156C64.5312 30.2682 64.5638 29.9883 64.6289 29.6758C64.707 29.3503 64.8828 28.9401 65.1562 28.4453C65.7682 27.3906 66.6341 26.2318 67.7539 24.9688C68.8867 23.7057 69.6289 22.8529 69.9805 22.4102C70.332 21.9674 70.612 21.5833 70.8203 21.2578C71.2109 20.6328 71.4062 20.151 71.4062 19.8125C71.4062 19.3438 71.0938 19.1094 70.4688 19.1094C69.1797 19.1094 67.0508 20.5677 64.082 23.4844C62.5846 24.9427 60.8659 26.8633 58.9258 29.2461L57.1094 31.6289ZM74.8047 30.8672C74.8047 31.2578 75.1172 31.4596 75.7422 31.4727C76.3672 31.4857 76.9922 31.349 77.6172 31.0625C78.2552 30.776 78.8867 30.4115 79.5117 29.9688C80.1367 29.526 80.7422 29.0312 81.3281 28.4844C81.9141 27.9245 82.4609 27.3711 82.9688 26.8242C83.4766 26.2773 83.9323 25.763 84.3359 25.2812L85.3516 24.0703L85.7812 24.4023L84.7656 25.5742C81.1328 29.8841 78.0794 32.0391 75.6055 32.0391C74.8893 32.0391 74.3555 31.8958 74.0039 31.6094C73.6393 31.3229 73.457 31.0104 73.457 30.6719C73.457 30.3333 73.4766 30.0534 73.5156 29.832C73.5417 29.6107 73.6068 29.3698 73.7109 29.1094C73.8151 28.8359 73.9714 28.5169 74.1797 28.1523C74.375 27.7878 74.6419 27.3451 74.9805 26.8242L78.0273 22.4297L83.0664 15.3398H81.5234C81.1328 15.3398 80.9375 15.2487 80.9375 15.0664C80.9375 14.8711 81.1849 14.7734 81.6797 14.7734H83.457L87.0703 9.69531C87.9818 9.83854 88.8867 9.83854 89.7852 9.69531L86.0156 14.7734H91.0547C91.4193 14.7734 91.6016 14.8711 91.6016 15.0664C91.6016 15.2487 91.4388 15.3398 91.1133 15.3398H85.5859L77.5 26.3359C76.1068 28.3021 75.3125 29.513 75.1172 29.9688C74.9089 30.4245 74.8047 30.724 74.8047 30.8672ZM93.0273 32.0391C91.7253 32.0391 91.0742 31.6354 91.0742 30.8281C91.0742 30.1641 91.4518 29.3307 92.207 28.3281L93.4375 26.7656L93.2422 26.6875C91.0547 29.3828 88.9909 31.0755 87.0508 31.7656C86.5169 31.9479 86.0547 32.0391 85.6641 32.0391C84.0625 32.0391 83.2617 31.1862 83.2617 29.4805C83.2617 27.4753 84.0625 25.5612 85.6641 23.7383C88.0339 20.9779 90.4167 19.3438 92.8125 18.8359C93.5286 18.6927 94.1406 18.6211 94.6484 18.6211C95.1562 18.6211 95.5534 18.6602 95.8398 18.7383C96.1393 18.8034 96.3997 18.901 96.6211 19.0312C97.0898 19.3307 97.3242 19.7018 97.3242 20.1445C97.3242 20.5742 97.2461 20.9844 97.0898 21.375L99.0039 19.0117C99.3555 19.1159 99.681 19.168 99.9805 19.168C100.749 19.168 101.302 19.1419 101.641 19.0898L95.0586 27.0195C93.4961 28.8424 92.7148 30.125 92.7148 30.8672C92.7148 31.2839 92.9622 31.4922 93.457 31.4922C93.9518 31.4922 94.5182 31.3424 95.1562 31.043C95.8073 30.7435 96.4518 30.3594 97.0898 29.8906C97.7279 29.4219 98.3464 28.901 98.9453 28.3281C99.5573 27.7552 100.117 27.1953 100.625 26.6484C101.146 26.1016 101.602 25.5938 101.992 25.125L102.93 24.0703L103.34 24.4023L102.344 25.5352C98.5938 29.8711 95.4883 32.0391 93.0273 32.0391ZM87.6172 25.0078C85.7812 27.2344 84.8633 29.0573 84.8633 30.4766C84.8633 31.1276 85.1562 31.4531 85.7422 31.4531C87.6432 31.4531 90.3841 29.3503 93.9648 25.1445L95.6055 23.1719C96.3867 21.987 96.7773 21.1276 96.7773 20.5938C96.7773 19.6823 96.3216 19.2266 95.4102 19.2266C94.1732 19.2266 92.3958 20.2812 90.0781 22.3906C89.2839 23.1198 88.4635 23.9922 87.6172 25.0078ZM108.828 28.4062C108.984 28.4323 109.18 28.4453 109.414 28.4453C109.661 28.4453 109.954 28.3542 110.293 28.1719C110.632 27.9896 110.977 27.7552 111.328 27.4688C111.693 27.1823 112.051 26.8698 112.402 26.5312C112.754 26.1797 113.073 25.8477 113.359 25.5352C113.659 25.2096 113.919 24.9167 114.141 24.6562L114.59 24.0703L115.02 24.4023C114.863 24.5586 114.661 24.7734 114.414 25.0469L113.594 25.9844C111.784 27.9375 110.352 28.9141 109.297 28.9141H108.965C108.861 28.9141 108.757 28.901 108.652 28.875C107.559 31.2578 105.234 32.4492 101.68 32.4492C100.13 32.4492 99.0039 32.0781 98.3008 31.3359C98.0013 31.0104 97.8516 30.5938 97.8516 30.0859C97.8516 29.5781 97.9753 29.1484 98.2227 28.7969C98.457 28.4323 98.737 28.1328 99.0625 27.8984C99.7266 27.4167 100.326 27.1758 100.859 27.1758C101.38 27.1758 101.641 27.4232 101.641 27.918C101.602 28.2565 101.315 28.5104 100.781 28.6797C100.612 28.7318 100.449 28.7578 100.293 28.7578C100.124 28.7578 99.9674 28.7057 99.8242 28.6016C99.668 28.4844 99.5443 28.3997 99.4531 28.3477C99.375 28.4258 99.2773 28.5169 99.1602 28.6211C99.0299 28.7253 98.9062 28.849 98.7891 28.9922C98.5026 29.3438 98.3594 29.7083 98.3594 30.0859C98.3594 30.4505 98.4831 30.7435 98.7305 30.9648C98.9779 31.1862 99.2708 31.3555 99.6094 31.4727C100.117 31.6549 100.651 31.7461 101.211 31.7461C101.758 31.7461 102.324 31.6289 102.91 31.3945C103.509 31.1602 104.095 30.7695 104.668 30.2227C106.243 28.7253 107.096 26.5052 107.227 23.5625C107.305 21.5833 107.546 20.0339 107.949 18.9141C107.962 18.875 107.969 18.8164 107.969 18.7383L103.359 24.4023C103.099 24.7148 102.91 24.9167 102.793 25.0078C102.663 25.099 102.598 25.1445 102.598 25.1445C102.441 25.1576 102.337 25.1185 102.285 25.0273C102.259 24.9622 102.318 24.8385 102.461 24.6562C105.82 20.6458 107.708 18.3672 108.125 17.8203C108.333 16.8047 108.672 16.2969 109.141 16.2969C109.362 16.2969 109.544 16.3555 109.688 16.4727C109.844 16.5898 109.922 16.7396 109.922 16.9219C109.909 17.1693 109.707 17.5208 109.316 17.9766C108.939 18.4193 108.704 18.7057 108.613 18.8359C108.535 18.9531 108.483 19.0573 108.457 19.1484C108.431 19.2266 108.418 19.3047 108.418 19.3828V19.6172C108.405 19.9688 108.438 20.3854 108.516 20.8672L109.004 24.1094C109.29 25.8802 109.232 27.3125 108.828 28.4062ZM124.785 14.3438C124.603 14.513 124.395 14.6497 124.16 14.7539C123.926 14.8451 123.659 14.8906 123.359 14.8906C123.06 14.8906 122.799 14.7799 122.578 14.5586C122.37 14.3242 122.266 14.0638 122.266 13.7773C122.266 13.4909 122.318 13.237 122.422 13.0156C122.526 12.7943 122.669 12.599 122.852 12.4297C123.229 12.0391 123.639 11.8438 124.082 11.8438C124.538 11.8438 124.87 11.9674 125.078 12.2148C125.299 12.4492 125.41 12.7096 125.41 12.9961C125.41 13.2826 125.352 13.5365 125.234 13.7578C125.13 13.9792 124.98 14.1745 124.785 14.3438ZM112.383 30.8867C112.383 31.2904 112.767 31.4922 113.535 31.4922C114.303 31.4922 115.026 31.3164 115.703 30.9648C116.393 30.6133 117.083 30.1771 117.773 29.6562C118.477 29.1224 119.154 28.543 119.805 27.918L121.562 26.1602C122.083 25.6133 122.513 25.1445 122.852 24.7539C123.19 24.3503 123.392 24.1159 123.457 24.0508L123.848 24.4023C123.717 24.5326 123.47 24.8125 123.105 25.2422C122.754 25.6589 122.311 26.1536 121.777 26.7266C121.243 27.2865 120.645 27.8789 119.98 28.5039C119.316 29.1289 118.62 29.7018 117.891 30.2227C116.211 31.4336 114.74 32.0391 113.477 32.0391C112.669 32.0391 112.025 31.8958 111.543 31.6094C111.061 31.3099 110.82 30.9714 110.82 30.5938C110.82 30.2161 110.859 29.8776 110.938 29.5781C111.016 29.2786 111.159 28.9206 111.367 28.5039C111.576 28.0872 111.868 27.599 112.246 27.0391C112.611 26.4792 113.092 25.8086 113.691 25.0273C114.277 24.2461 114.993 23.3411 115.84 22.3125L118.848 18.7578C119.004 18.7969 119.323 18.8164 119.805 18.8164H120.723C121.061 18.8164 121.335 18.8034 121.543 18.7773C117.233 23.9206 114.811 26.8503 114.277 27.5664C113.73 28.2695 113.327 28.8229 113.066 29.2266C112.611 29.9167 112.383 30.4701 112.383 30.8867ZM131.113 32.0391C129.811 32.0391 129.16 31.6354 129.16 30.8281C129.16 30.1641 129.538 29.3307 130.293 28.3281L131.523 26.7656L131.328 26.6875C129.141 29.3828 127.077 31.0755 125.137 31.7656C124.603 31.9479 124.141 32.0391 123.75 32.0391C122.148 32.0391 121.348 31.1862 121.348 29.4805C121.348 27.4753 122.148 25.5612 123.75 23.7383C126.12 20.9779 128.503 19.3438 130.898 18.8359C131.615 18.6927 132.227 18.6211 132.734 18.6211C133.242 18.6211 133.639 18.6602 133.926 18.7383C134.225 18.8034 134.486 18.901 134.707 19.0312C135.176 19.3307 135.41 19.7018 135.41 20.1445C135.41 20.5742 135.332 20.9844 135.176 21.375L137.09 19.0117C137.441 19.1159 137.767 19.168 138.066 19.168C138.835 19.168 139.388 19.1419 139.727 19.0898L133.145 27.0195C131.582 28.8424 130.801 30.125 130.801 30.8672C130.801 31.2839 131.048 31.4922 131.543 31.4922C132.038 31.4922 132.604 31.3424 133.242 31.043C133.893 30.7435 134.538 30.3594 135.176 29.8906C135.814 29.4219 136.432 28.901 137.031 28.3281C137.643 27.7552 138.203 27.1953 138.711 26.6484C139.232 26.1016 139.688 25.5938 140.078 25.125L141.016 24.0703L141.426 24.4023L140.43 25.5352C136.68 29.8711 133.574 32.0391 131.113 32.0391ZM125.703 25.0078C123.867 27.2344 122.949 29.0573 122.949 30.4766C122.949 31.1276 123.242 31.4531 123.828 31.4531C125.729 31.4531 128.47 29.3503 132.051 25.1445L133.691 23.1719C134.473 21.987 134.863 21.1276 134.863 20.5938C134.863 19.6823 134.408 19.2266 133.496 19.2266C132.259 19.2266 130.482 20.2812 128.164 22.3906C127.37 23.1198 126.549 23.9922 125.703 25.0078Z" fill="#FD6EE3"/>
<path d="M19.5312 20.6328L19.5517 20.5349L19.4892 20.5219L19.4511 20.5731L19.5312 20.6328ZM0.820312 30.3984L0.730866 30.4432L0.731297 30.444L0.820312 30.3984ZM1.21094 28.1133L1.26909 28.1947L1.27145 28.1929L1.21094 28.1133ZM3.06641 27.957L3.12075 27.873L3.11855 27.8717L3.06641 27.957ZM1.36719 29.4219L1.41789 29.3357L1.26719 29.247V29.4219H1.36719ZM2.20703 30.9453L2.2625 30.8621L2.2616 30.8615L2.20703 30.9453ZM6.07422 31.3359L6.09432 31.4339L6.0967 31.4334L6.07422 31.3359ZM7.63672 30.7109L7.68565 30.7982L7.68633 30.7978L7.63672 30.7109ZM9.375 29.4219L9.30915 29.3466L9.30837 29.3473L9.375 29.4219ZM11.4453 27.3125L11.3703 27.2464L11.3702 27.2465L11.4453 27.3125ZM14.0234 24.1484L14.1027 24.2094L14.1036 24.2082L14.0234 24.1484ZM17.2852 19.7734L17.3653 19.8332L17.4286 19.7484L17.3403 19.69L17.2852 19.7734ZM16.9531 16.6094L17.0154 16.6877L17.0159 16.6873L16.9531 16.6094ZM18.8086 16.3945L18.8254 16.4934L18.8328 16.4915L18.8086 16.3945ZM17.4219 17.1172L17.3448 17.0534L17.3446 17.0537L17.4219 17.1172ZM17.6172 19.3047L17.5617 19.3879L17.6411 19.4408L17.6977 19.364L17.6172 19.3047ZM17.8906 18.9336L17.8103 18.874L17.8101 18.8743L17.8906 18.9336ZM23.1641 12.5078L23.2354 12.5779L23.2358 12.5775L23.1641 12.5078ZM29.6875 6.88281L29.6325 6.79928L29.6309 6.80039L29.6875 6.88281ZM30.4883 6.35547L30.5433 6.43899L30.6748 6.35238L30.5405 6.27018L30.4883 6.35547ZM14.3359 6.80469L14.3738 6.89726L14.3741 6.89714L14.3359 6.80469ZM7.71484 11.1992L7.78765 11.2678L7.78786 11.2675L7.71484 11.1992ZM5.27344 16.4727L5.3734 16.47L5.37339 16.4697L5.27344 16.4727ZM6.21094 18.6992L6.14627 18.7755L6.14652 18.7757L6.21094 18.6992ZM10.293 18.6992L10.2471 18.6104L10.2465 18.6107L10.293 18.6992ZM12.6172 17.0977L12.6831 17.1728L12.6839 17.1722L12.6172 17.0977ZM14.707 14.8906L14.6293 14.8277L14.6292 14.8279L14.707 14.8906ZM16.4453 12.4492L16.3604 12.3964L16.3601 12.397L16.4453 12.4492ZM18.2227 8.42578L18.322 8.43786L18.3223 8.43457L18.2227 8.42578ZM18.6719 7.91797L18.5726 7.93037L18.5729 7.93211L18.6719 7.91797ZM17.4609 13.3672L17.3715 13.3225L17.3712 13.323L17.4609 13.3672ZM15.8789 15.8086L15.8014 15.7453L15.8008 15.7461L15.8789 15.8086ZM13.7305 17.8789L13.6709 17.7986L13.6708 17.7986L13.7305 17.8789ZM5.74219 18.9531L5.67285 19.0252L5.673 19.0253L5.74219 18.9531ZM4.66797 16.4727L4.76794 16.47L4.76789 16.4687L4.66797 16.4727ZM7.42188 10.6523L7.49259 10.7231L7.42188 10.6523ZM10.5859 8.19141L10.6382 8.27667L10.6384 8.27651L10.5859 8.19141ZM14.5312 6.25781L14.5667 6.3513L14.5673 6.3511L14.5312 6.25781ZM31.1523 5.96484L31.1086 6.05476L31.1553 6.0775L31.2008 6.05233L31.1523 5.96484ZM35.0586 4.8125H34.9578L34.9594 4.8249L35.0586 4.8125ZM34.9805 5.04688L34.9176 4.96831L34.9098 4.97616L34.9805 5.04688ZM34.4141 5.20312L34.3983 5.10435L34.3957 5.10482L34.4141 5.20312ZM31.8555 6.33594L31.8008 6.2522L31.666 6.34023L31.8046 6.42206L31.8555 6.33594ZM33.1641 16.043L33.2411 16.1067L33.2415 16.1063L33.1641 16.043ZM28.4961 19.5391L28.5379 19.6299L28.5383 19.6297L28.4961 19.5391ZM19.9023 20.1445L19.821 20.0863L19.7315 20.2114L19.8821 20.2425L19.9023 20.1445ZM24.5117 20.1055L24.4878 20.0084L24.4875 20.0085L24.5117 20.1055ZM26.8359 19.2461L26.8807 19.3355L26.8813 19.3352L26.8359 19.2461ZM30.8984 15.7891L30.8166 15.7315L30.8163 15.732L30.8984 15.7891ZM31.1523 6.82422L31.2163 6.74731L31.1564 6.69759L31.0935 6.74335L31.1523 6.82422ZM22.8125 16.082L22.8938 16.1403L22.8942 16.1397L22.8125 16.082ZM19.4511 20.5731C16.622 24.3712 13.9785 27.2149 11.521 29.1083C9.06298 31.0021 6.79896 31.9391 4.72656 31.9391V32.1391C6.85989 32.1391 9.16619 31.175 11.6431 29.2667C14.1205 27.358 16.7765 24.4986 19.6114 20.6925L19.4511 20.5731ZM4.72656 31.9391C2.69337 31.9391 1.44272 31.3948 0.909328 30.3529L0.731297 30.444C1.3177 31.5895 2.67121 32.1391 4.72656 32.1391V31.9391ZM0.909755 30.3537C0.759928 30.0541 0.685937 29.7503 0.685937 29.4414H0.485938C0.485938 29.7836 0.568197 30.1178 0.73087 30.4432L0.909755 30.3537ZM0.685937 29.4414C0.685937 29.1133 0.742893 28.8585 0.848876 28.6701L0.674561 28.5721C0.54617 28.8003 0.485938 29.0924 0.485938 29.4414H0.685937ZM0.848876 28.6701C0.959366 28.4737 1.09949 28.3158 1.26906 28.1947L1.15281 28.0319C0.9578 28.1712 0.798447 28.3518 0.674561 28.5721L0.848876 28.6701ZM1.27145 28.1929C1.57661 27.961 1.95792 27.8422 2.42188 27.8422V27.6422C1.92229 27.6422 1.49631 27.7708 1.15043 28.0337L1.27145 28.1929ZM2.42188 27.8422C2.59277 27.8422 2.7895 27.905 3.01426 28.0424L3.11855 27.8717C2.87456 27.7226 2.64161 27.6422 2.42188 27.6422V27.8422ZM3.01208 28.041C3.20214 28.164 3.29844 28.3455 3.29844 28.6016H3.49844C3.49844 28.2847 3.37338 28.0366 3.12073 27.8731L3.01208 28.041ZM3.29844 28.6016C3.29844 28.8583 3.20083 29.0722 3.00024 29.2492L3.13257 29.3992C3.37469 29.1856 3.49844 28.9177 3.49844 28.6016H3.29844ZM3.00024 29.2492C2.79983 29.4261 2.54455 29.5172 2.22656 29.5172V29.7172C2.58566 29.7172 2.89028 29.613 3.13257 29.3992L3.00024 29.2492ZM2.22656 29.5172C1.88652 29.5172 1.61922 29.4541 1.41789 29.3357L1.31649 29.5081C1.55786 29.6501 1.86348 29.7172 2.22656 29.7172V29.5172ZM1.26719 29.4219V29.5195H1.46719V29.4219H1.26719ZM1.26719 29.5195C1.26719 30.1445 1.56889 30.6491 2.15246 31.0291L2.2616 30.8615C1.72538 30.5123 1.46719 30.0664 1.46719 29.5195H1.26719ZM2.15156 31.0285C2.71749 31.4058 3.39513 31.5922 4.17969 31.5922V31.3922C3.42779 31.3922 2.79032 31.214 2.2625 30.8621L2.15156 31.0285ZM4.17969 31.5922C4.93888 31.5922 5.57764 31.5399 6.09431 31.4339L6.05412 31.238C5.55517 31.3403 4.93091 31.3922 4.17969 31.3922V31.5922ZM6.0967 31.4334C6.61522 31.3137 7.14491 31.1015 7.68564 30.7982L7.58779 30.6237C7.06082 30.9193 6.54884 31.1238 6.05173 31.2385L6.0967 31.4334ZM7.68633 30.7978C8.2408 30.4809 8.8259 30.0467 9.44163 29.4964L9.30837 29.3473C8.70014 29.8908 8.12638 30.316 7.5871 30.6241L7.68633 30.7978ZM9.44085 29.4971C10.0701 28.9465 10.7633 28.24 11.5204 27.3785L11.3702 27.2465C10.6169 28.1037 9.9299 28.8035 9.30915 29.3466L9.44085 29.4971ZM11.5204 27.3786C12.2905 26.5041 13.1513 25.4476 14.1027 24.2094L13.9441 24.0875C12.9946 25.3233 12.1366 26.3761 11.3703 27.2464L11.5204 27.3786ZM14.1036 24.2082L17.3653 19.8332L17.205 19.7137L13.9433 24.0887L14.1036 24.2082ZM17.3403 19.69C16.6293 19.2202 16.2914 18.6748 16.2914 18.0547H16.0914C16.0914 18.7627 16.4827 19.3631 17.23 19.8569L17.3403 19.69ZM16.2914 18.0547C16.2914 17.5303 16.5271 17.0757 17.0153 16.6877L16.8909 16.5311C16.3635 16.9503 16.0914 17.4592 16.0914 18.0547H16.2914ZM17.0159 16.6873C17.4726 16.3193 17.9133 16.143 18.3398 16.143V15.943C17.8549 15.943 17.3712 16.1442 16.8904 16.5315L17.0159 16.6873ZM18.3398 16.143C18.5719 16.143 18.7367 16.1593 18.8404 16.1881C18.8926 16.2026 18.9212 16.2181 18.935 16.2297C18.9413 16.2349 18.9429 16.238 18.9431 16.2382C18.9431 16.2384 18.9431 16.2383 18.943 16.238C18.9429 16.2377 18.943 16.2377 18.943 16.2383H19.143C19.143 16.1708 19.1108 16.1158 19.063 16.076C19.0183 16.0387 18.959 16.0135 18.894 15.9954C18.7633 15.9592 18.5765 15.943 18.3398 15.943V16.143ZM18.943 16.2383C18.943 16.2241 18.9534 16.2267 18.9289 16.243C18.9038 16.2597 18.8581 16.2791 18.7843 16.2975L18.8328 16.4915C18.9153 16.4709 18.9868 16.4447 19.0398 16.4094C19.0935 16.3736 19.143 16.3175 19.143 16.2383H18.943ZM18.7918 16.2959C18.1627 16.403 17.6763 16.6529 17.3448 17.0534L17.4989 17.1809C17.7924 16.8263 18.2305 16.5944 18.8254 16.4931L18.7918 16.2959ZM17.3446 17.0537C17.033 17.433 16.8727 17.8389 16.8727 18.2695H17.0727C17.0727 17.8928 17.2118 17.5305 17.4991 17.1807L17.3446 17.0537ZM16.8727 18.2695C16.8727 18.7159 17.113 19.0887 17.5617 19.3879L17.6727 19.2215C17.262 18.9477 17.0727 18.6304 17.0727 18.2695H16.8727ZM17.6977 19.364L17.9711 18.9929L17.8101 18.8743L17.5367 19.2454L17.6977 19.364ZM17.9709 18.9932C20.1054 16.1168 21.86 13.9792 23.2354 12.5779L23.0927 12.4378C21.7077 13.8489 19.9466 15.9952 17.8103 18.874L17.9709 18.9932ZM23.2358 12.5775C25.4588 10.2895 27.6283 8.41906 29.7441 6.96523L29.6309 6.80039C27.5019 8.26323 25.3225 10.1428 23.0923 12.4381L23.2358 12.5775ZM29.7425 6.96633L30.5433 6.43899L30.4333 6.27195L29.6325 6.7993L29.7425 6.96633ZM30.5405 6.27018C29.0064 5.33121 26.6597 4.86875 23.5156 4.86875V5.06875C26.6476 5.06875 28.9493 5.53077 30.4361 6.44076L30.5405 6.27018ZM23.5156 4.86875C20.3513 4.86875 17.2784 5.48339 14.2978 6.71224L14.3741 6.89714C17.3309 5.67807 20.3779 5.06875 23.5156 5.06875V4.86875ZM14.2981 6.71212C11.5787 7.82341 9.35895 9.2958 7.64182 11.1309L7.78786 11.2675C9.48219 9.45681 11.6765 7.99951 14.3738 6.89726L14.2981 6.71212ZM7.64204 11.1307C5.95178 12.9257 5.12032 14.708 5.17348 16.4757L5.37339 16.4697C5.32239 14.7737 6.11853 13.0404 7.78765 11.2678L7.64204 11.1307ZM5.17347 16.4753C5.20007 17.4728 5.52049 18.2449 6.14627 18.7755L6.27561 18.6229C5.70347 18.1379 5.39888 17.4256 5.3734 16.47L5.17347 16.4753ZM6.14652 18.7757C6.66131 19.2092 7.29033 19.4242 8.02734 19.4242V19.2242C7.33207 19.2242 6.75015 19.0226 6.27535 18.6227L6.14652 18.7757ZM8.02734 19.4242C8.76325 19.4242 9.53437 19.2101 10.3394 18.7878L10.2465 18.6107C9.46303 19.0217 8.72373 19.2242 8.02734 19.2242V19.4242ZM10.3388 18.7881C11.1539 18.3674 11.9354 17.8288 12.6831 17.1728L12.5512 17.0225C11.8146 17.6686 11.0466 18.1977 10.2471 18.6104L10.3388 18.7881ZM12.6839 17.1722C13.4302 16.5044 14.1306 15.7647 14.7849 14.9534L14.6292 14.8279C13.9814 15.6311 13.2885 16.3628 12.5505 17.0231L12.6839 17.1722ZM14.7848 14.9535C15.4513 14.1302 16.0333 13.3129 16.5306 12.5015L16.3601 12.397C15.8678 13.2001 15.2909 14.0104 14.6293 14.8277L14.7848 14.9535ZM16.5303 12.502C17.5991 10.7814 18.2019 9.4245 18.3219 8.43785L18.1234 8.41371C18.009 9.35415 17.427 10.6795 16.3604 12.3965L16.5303 12.502ZM18.3223 8.43457C18.3416 8.21555 18.37 8.05961 18.4048 7.96102C18.4223 7.91147 18.439 7.88344 18.4514 7.86938C18.4622 7.85723 18.4636 7.86172 18.457 7.86172V7.66172C18.3919 7.66172 18.3396 7.69388 18.3015 7.73706C18.2651 7.77834 18.2378 7.83333 18.2162 7.89445C18.1729 8.01721 18.1428 8.19331 18.123 8.41699L18.3223 8.43457ZM18.457 7.86172C18.5105 7.86172 18.5372 7.87266 18.5496 7.88165C18.5589 7.88843 18.5689 7.90019 18.5726 7.93037L18.7711 7.90557C18.7619 7.83158 18.7295 7.76521 18.6672 7.71991C18.608 7.67682 18.5338 7.66172 18.457 7.66172V7.86172ZM18.5729 7.93211C18.5849 8.01606 18.5979 8.29513 18.611 8.78005L18.8109 8.77464C18.798 8.29602 18.7849 8.00217 18.7709 7.90383L18.5729 7.93211ZM18.611 8.78005C18.6236 9.24848 18.5285 9.90884 18.3208 10.7655L18.5152 10.8126C18.7241 9.95053 18.8243 9.26975 18.8109 8.77464L18.611 8.78005ZM18.3208 10.7655C18.1144 11.617 17.7981 12.4693 17.3715 13.3225L17.5504 13.4119C17.9831 12.5464 18.3049 11.6799 18.5152 10.8126L18.3208 10.7655ZM17.3712 13.323C16.9581 14.1621 16.435 14.9696 15.8015 15.7453L15.9564 15.8718C16.5988 15.0851 17.1304 14.265 17.5507 13.4114L17.3712 13.323ZM15.8008 15.7461C15.1812 16.5206 14.4713 17.2047 13.6709 17.7986L13.7901 17.9592C14.6042 17.3552 15.3266 16.6591 15.957 15.8711L15.8008 15.7461ZM13.6708 17.7986C11.9166 19.1014 9.98429 19.7516 7.87109 19.7516V19.9516C10.0287 19.9516 12.0026 19.2866 13.7901 17.9592L13.6708 17.7986ZM7.87109 19.7516C7.10504 19.7516 6.41959 19.4638 5.81138 18.8809L5.673 19.0253C6.31478 19.6404 7.04861 19.9516 7.87109 19.9516V19.7516ZM5.81153 18.8811C5.14105 18.2359 4.79331 17.4343 4.76793 16.47L4.568 16.4753C4.59471 17.4902 4.96311 18.3422 5.67285 19.0252L5.81153 18.8811ZM4.76789 16.4687C4.72957 15.4979 4.95286 14.5182 5.44124 13.5286L5.26189 13.4401C4.76068 14.4557 4.52825 15.4683 4.56805 16.4766L4.76789 16.4687ZM5.44124 13.5286C5.93065 12.5369 6.61398 11.6017 7.49259 10.7231L7.35116 10.5816C6.45894 11.4739 5.76206 12.4266 5.26189 13.4401L5.44124 13.5286ZM7.49259 10.7231C8.38486 9.83078 9.43318 9.01522 10.6382 8.27667L10.5337 8.10615C9.31682 8.85197 8.25577 9.67703 7.35116 10.5816L7.49259 10.7231ZM10.6384 8.27651C11.8568 7.52478 13.1661 6.88301 14.5667 6.3513L14.4958 6.16432C13.0839 6.70032 11.763 7.34762 10.5334 8.1063L10.6384 8.27651ZM14.5673 6.3511C17.5249 5.20955 20.5336 4.63906 23.5938 4.63906V4.43906C20.5081 4.43906 17.4751 5.01441 14.4952 6.16452L14.5673 6.3511ZM23.5938 4.63906C26.6705 4.63906 29.1736 5.11306 31.1086 6.05476L31.1961 5.87493C29.2248 4.91558 26.6889 4.43906 23.5938 4.43906V4.63906ZM31.2008 6.05233C32.7761 5.18004 33.9344 4.75625 34.6875 4.75625V4.55625C33.8781 4.55625 32.6796 5.00486 31.1039 5.87736L31.2008 6.05233ZM34.6875 4.75625C34.8072 4.75625 34.8838 4.76929 34.927 4.78748C34.9476 4.79614 34.955 4.80368 34.957 4.80621C34.9578 4.80723 34.9586 4.80789 34.9586 4.8125H35.1586C35.1586 4.76503 35.1439 4.72011 35.1138 4.68207C35.0849 4.64554 35.0459 4.62053 35.0046 4.60315C34.9241 4.56925 34.8152 4.55625 34.6875 4.55625V4.75625ZM34.9594 4.8249C34.9694 4.90484 34.9487 4.94419 34.918 4.96879L35.0429 5.12496C35.1424 5.04539 35.1739 4.9285 35.1578 4.8001L34.9594 4.8249ZM34.9098 4.97616C34.9101 4.97585 34.9022 4.98285 34.8761 4.99415C34.8517 5.00468 34.8179 5.01628 34.7732 5.0286C34.6839 5.05323 34.5595 5.07859 34.3983 5.10438L34.4299 5.30187C34.5942 5.27558 34.7269 5.24886 34.8264 5.2214C34.8761 5.20768 34.9196 5.19324 34.9555 5.17772C34.9895 5.16299 35.0248 5.14394 35.0512 5.11759L34.9098 4.97616ZM34.3957 5.10482C33.6102 5.25127 32.7449 5.63589 31.8008 6.2522L31.9101 6.41968C32.841 5.81203 33.6814 5.44144 34.4324 5.30143L34.3957 5.10482ZM31.8046 6.42206C33.8754 7.64392 34.9 9.3063 34.9 11.4141H35.1C35.1 9.22495 34.0283 7.50191 31.9063 6.24981L31.8046 6.42206ZM34.9 11.4141C34.9 12.9748 34.2993 14.4961 33.0866 15.9797L33.2415 16.1063C34.4768 14.595 35.1 13.0304 35.1 11.4141H34.9ZM33.087 15.9792C31.9128 17.3985 30.3694 18.5554 28.4538 19.4484L28.5383 19.6297C30.4769 18.7259 32.0455 17.552 33.2411 16.1067L33.087 15.9792ZM28.4543 19.4482C26.4877 20.3539 24.4642 20.8062 22.3828 20.8062V21.0063C24.4942 21.0063 26.5462 20.5471 28.5379 19.6299L28.4543 19.4482ZM22.3828 20.8062C21.36 20.8062 20.4164 20.7156 19.5517 20.5349L19.5108 20.7307C20.3909 20.9146 21.3483 21.0063 22.3828 21.0063V20.8062ZM19.8821 20.2425C20.7081 20.4129 21.4897 20.4984 22.2266 20.4984V20.2984C21.5051 20.2984 20.7372 20.2147 19.9226 20.0466L19.8821 20.2425ZM22.2266 20.4984C22.9776 20.4984 23.7475 20.3996 24.536 20.2025L24.4875 20.0085C23.7135 20.202 22.9599 20.2984 22.2266 20.2984V20.4984ZM24.5356 20.2026C25.3373 20.0054 26.119 19.7164 26.8807 19.3355L26.7912 19.1567C26.0424 19.531 25.2747 19.8149 24.4878 20.0084L24.5356 20.2026ZM26.8813 19.3352C27.6562 18.9412 28.3978 18.4555 29.1061 17.8783L28.9798 17.7233C28.2819 18.2919 27.5522 18.7697 26.7906 19.157L26.8813 19.3352ZM29.1061 17.8783C29.8167 17.2993 30.4415 16.6218 30.9806 15.8461L30.8163 15.732C30.2876 16.4928 29.6755 17.1564 28.9798 17.7233L29.1061 17.8783ZM30.9802 15.8466C32.1643 14.1626 32.7563 12.2608 32.7563 10.1445H32.5562C32.5562 12.2209 31.9763 14.0822 30.8166 15.7315L30.9802 15.8466ZM32.7563 10.1445C32.7563 8.7366 32.2432 7.60089 31.2163 6.74731L31.0884 6.90112C32.0667 7.71422 32.5562 8.79205 32.5562 10.1445H32.7563ZM31.0935 6.74335C29.6529 7.79108 28.1562 9.23607 26.6033 11.0761L26.7561 11.2051C28.3021 9.37331 29.7872 7.94069 31.2112 6.90509L31.0935 6.74335ZM26.6033 11.0761C25.0525 12.9136 23.7616 14.5631 22.7308 16.0244L22.8942 16.1397C23.9207 14.6843 25.2079 13.0396 26.7561 11.2051L26.6033 11.0761ZM22.7312 16.0238L19.821 20.0863L19.9836 20.2028L22.8938 16.1403L22.7312 16.0238ZM30.957 31.0039L30.999 31.0947L30.9998 31.0943L30.957 31.0039ZM33.0664 29.7344L33.0079 29.6533L33.0071 29.6538L33.0664 29.7344ZM35.0977 28.0742L35.1654 28.1478L35.1661 28.1471L35.0977 28.0742ZM36.875 26.3359L36.9466 26.4058L36.9481 26.4041L36.875 26.3359ZM38.2227 24.8906L38.2958 24.9589L38.2979 24.9565L38.2227 24.8906ZM38.9648 24.0703L39.0296 23.9941L38.9593 23.9344L38.8941 23.9996L38.9648 24.0703ZM39.3555 24.4023L39.4262 24.4731L39.5029 24.3964L39.4202 24.3261L39.3555 24.4023ZM38.5547 25.2617L38.4807 25.1944L38.4796 25.1957L38.5547 25.2617ZM37.1484 26.7461L37.0777 26.6754L37.0769 26.6762L37.1484 26.7461ZM35.293 28.5234L35.2258 28.4493L35.2251 28.45L35.293 28.5234ZM33.1641 30.2422L33.221 30.3244L33.2215 30.324L33.1641 30.2422ZM27.2656 31.5898L27.3305 31.5137L27.3291 31.5126L27.2656 31.5898ZM26.7773 29.793L26.8758 29.8114L26.8766 29.8054L26.7773 29.793ZM26.9727 29.0898L27.0655 29.127L27.0661 29.1254L26.9727 29.0898ZM27.4219 28.1523L27.5093 28.2009L27.51 28.1996L27.4219 28.1523ZM28.2031 26.8438L28.1203 26.7877L28.1189 26.7898L28.2031 26.8438ZM31.1914 22.4297L31.1095 22.3724L31.1086 22.3736L31.1914 22.4297ZM46.2891 0.847656L46.3028 0.748607L46.2422 0.740188L46.2071 0.790335L46.2891 0.847656ZM49.0039 0.847656L49.0851 0.906058L49.2234 0.713787L48.9891 0.748752L49.0039 0.847656ZM29.707 27.7422L29.7897 27.7984L29.7902 27.7977L29.707 27.7422ZM28.7305 29.2266L28.8147 29.2805L28.8156 29.279L28.7305 29.2266ZM28.2617 30.0273L28.3512 30.0721L28.2617 30.0273ZM27.9273 30.8477C27.9273 31.0903 28.0177 31.2847 28.2051 31.4135C28.3856 31.5376 28.644 31.5922 28.9648 31.5922V31.3922C28.6607 31.3922 28.4503 31.3393 28.3184 31.2486C28.1932 31.1626 28.1273 31.0347 28.1273 30.8477H27.9273ZM28.9648 31.5922C29.6074 31.5922 30.2858 31.4248 30.999 31.0947L30.915 30.9132C30.222 31.234 29.5723 31.3922 28.9648 31.3922V31.5922ZM30.9998 31.0943C31.7222 30.7528 32.4308 30.3262 33.1257 29.8149L33.0071 29.6538C32.3218 30.1581 31.6242 30.5779 30.9143 30.9135L30.9998 31.0943ZM33.125 29.8154C33.8313 29.3053 34.5115 28.7494 35.1654 28.1478L35.03 28.0006C34.3818 28.597 33.7077 29.1479 33.0079 29.6533L33.125 29.8154ZM35.1661 28.1471C35.8181 27.5343 36.4116 26.9538 36.9466 26.4058L36.8034 26.2661C36.2707 26.8118 35.6793 27.3902 35.0292 28.0014L35.1661 28.1471ZM36.9481 26.4041L38.2958 24.9588L38.1495 24.8224L36.8019 26.2677L36.9481 26.4041ZM38.2979 24.9565C38.6629 24.5394 38.9081 24.2685 39.0356 24.141L38.8941 23.9996C38.7612 24.1326 38.5116 24.4085 38.1474 24.8248L38.2979 24.9565ZM38.9001 24.1465L39.2907 24.4785L39.4202 24.3261L39.0296 23.9941L38.9001 24.1465ZM39.2848 24.3316C39.1396 24.4768 38.8711 24.765 38.4807 25.1945L38.6287 25.329C39.0195 24.8991 39.2849 24.6143 39.4262 24.4731L39.2848 24.3316ZM38.4796 25.1957C38.1038 25.6233 37.6366 26.1165 37.0777 26.6754L37.2191 26.8168C37.78 26.2559 38.2504 25.7595 38.6298 25.3277L38.4796 25.1957ZM37.0769 26.6762C36.5317 27.2344 35.9147 27.8254 35.2258 28.4493L35.3601 28.5976C36.0514 27.9714 36.6714 27.3776 37.22 26.816L37.0769 26.6762ZM35.2251 28.45C34.5513 29.072 33.8451 29.6421 33.1066 30.1603L33.2215 30.324C33.9674 29.8006 34.6805 29.2249 35.3608 28.5969L35.2251 28.45ZM33.1072 30.1599C31.3827 31.3528 29.886 31.9391 28.6133 31.9391V32.1391C29.9447 32.1391 31.4819 31.5274 33.221 30.3244L33.1072 30.1599ZM28.6133 31.9391C28.0856 31.9391 27.6607 31.795 27.3305 31.5137L27.2008 31.666C27.5736 31.9836 28.0472 32.1391 28.6133 32.1391V31.9391ZM27.3291 31.5126C26.9781 31.2242 26.8188 30.9309 26.8188 30.6328H26.6187C26.6187 31.0118 26.824 31.3565 27.2022 31.6671L27.3291 31.5126ZM26.8188 30.6328C26.8188 30.284 26.8382 30.011 26.8756 29.8114L26.6791 29.7745C26.6384 29.9916 26.6187 30.2785 26.6187 30.6328H26.8188ZM26.8766 29.8054C26.9013 29.6078 26.9635 29.3819 27.0655 29.127L26.8798 29.0527C26.7735 29.3186 26.7055 29.5615 26.6781 29.7806L26.8766 29.8054ZM27.0661 29.1254C27.1681 28.8578 27.3155 28.5497 27.5093 28.2009L27.3345 28.1038C27.1376 28.4581 26.9856 28.775 26.8792 29.0542L27.0661 29.1254ZM27.51 28.1996C27.7037 27.8381 27.9626 27.4042 28.2873 26.8977L28.1189 26.7898C27.7926 27.2989 27.5307 27.7375 27.3337 28.1051L27.51 28.1996ZM28.2859 26.8998L31.2742 22.4857L31.1086 22.3736L28.1203 26.7877L28.2859 26.8998ZM31.2733 22.487L46.371 0.904978L46.2071 0.790335L31.1095 22.3724L31.2733 22.487ZM46.2753 0.946706C47.2216 1.07813 48.1362 1.07828 49.0187 0.946561L48.9891 0.748752C48.1269 0.87745 47.2315 0.877597 46.3028 0.748607L46.2753 0.946706ZM48.9227 0.789255C36.502 18.0532 30.0679 27.0207 29.6238 27.6867L29.7902 27.7977C30.2316 27.1356 36.662 18.1733 49.0851 0.906058L48.9227 0.789255ZM29.6243 27.686C29.1814 28.3373 28.8549 28.8336 28.6453 29.1742L28.8156 29.279C29.0227 28.9424 29.3472 28.4492 29.7897 27.7984L29.6243 27.686ZM28.6462 29.1727C28.4371 29.4995 28.2787 29.7698 28.1723 29.9826L28.3512 30.0721C28.4531 29.8683 28.6072 29.6047 28.8147 29.2805L28.6462 29.1727ZM28.1723 29.9826C28.0122 30.3028 27.9273 30.592 27.9273 30.8477H28.1273C28.1273 30.6345 28.1987 30.3769 28.3512 30.0721L28.1723 29.9826ZM45.8008 28.3281L45.7222 28.2662L45.7209 28.268L45.8008 28.3281ZM47.0312 26.7656L47.1098 26.8275L47.1925 26.7224L47.0684 26.6728L47.0312 26.7656ZM46.8359 26.6875L46.8731 26.5947L46.8047 26.5673L46.7583 26.6245L46.8359 26.6875ZM40.6445 31.7656L40.6768 31.8603L40.678 31.8598L40.6445 31.7656ZM39.2578 23.7383L39.3329 23.8043L39.3337 23.8034L39.2578 23.7383ZM46.4062 18.8359L46.3866 18.7379L46.3855 18.7381L46.4062 18.8359ZM49.4336 18.7383L49.4072 18.8349L49.4123 18.836L49.4336 18.7383ZM50.2148 19.0312L50.2687 18.9469L50.2655 18.9451L50.2148 19.0312ZM50.6836 21.375L50.5907 21.3379L50.7613 21.4379L50.6836 21.375ZM52.5977 19.0117L52.6261 18.9158L52.562 18.8969L52.5199 18.9488L52.5977 19.0117ZM55.2344 19.0898L55.3113 19.1537L55.4796 18.9509L55.2192 18.991L55.2344 19.0898ZM48.6523 27.0195L48.7283 27.0846L48.7293 27.0834L48.6523 27.0195ZM48.75 31.043L48.7082 30.9521L48.7075 30.9524L48.75 31.043ZM52.5391 28.3281L52.4707 28.2551L52.4699 28.2559L52.5391 28.3281ZM54.2188 26.6484L54.1463 26.5795L54.1455 26.5804L54.2188 26.6484ZM55.5859 25.125L55.5112 25.0585L55.5091 25.061L55.5859 25.125ZM56.5234 24.0703L56.5864 23.9926L56.5121 23.9325L56.4487 24.0039L56.5234 24.0703ZM56.9336 24.4023L57.0087 24.4684L57.0775 24.3902L56.9965 24.3246L56.9336 24.4023ZM55.9375 25.5352L55.8624 25.4691L55.8619 25.4697L55.9375 25.5352ZM41.2109 25.0078L41.1341 24.9438L41.1338 24.9442L41.2109 25.0078ZM47.5586 25.1445L47.6347 25.2094L47.6355 25.2085L47.5586 25.1445ZM49.1992 23.1719L49.2766 23.2362L49.2827 23.2269L49.1992 23.1719ZM43.6719 22.3906L43.6046 22.3167L43.6042 22.317L43.6719 22.3906ZM46.6211 31.9391C45.9771 31.9391 45.5111 31.8387 45.2089 31.6513C44.9147 31.4689 44.768 31.1994 44.768 30.8281H44.568C44.568 31.2641 44.7468 31.6001 45.1036 31.8213C45.4525 32.0376 45.963 32.1391 46.6211 32.1391V31.9391ZM44.768 30.8281C44.768 30.198 45.1285 29.3868 45.8807 28.3883L45.7209 28.268C44.9626 29.2746 44.568 30.1302 44.568 30.8281H44.768ZM45.8793 28.39L47.1098 26.8275L46.9527 26.7038L45.7222 28.2663L45.8793 28.39ZM47.0684 26.6728L46.8731 26.5947L46.7988 26.7803L46.9941 26.8585L47.0684 26.6728ZM46.7583 26.6245C44.5753 29.3142 42.5257 30.9903 40.611 31.6714L40.678 31.8598C42.6436 31.1607 44.7215 29.4514 46.9136 26.7505L46.7583 26.6245ZM40.6122 31.671C40.0846 31.8512 39.6337 31.9391 39.2578 31.9391V32.1391C39.6631 32.1391 40.1368 32.0447 40.6768 31.8603L40.6122 31.671ZM39.2578 31.9391C38.4741 31.9391 37.9043 31.7307 37.529 31.331C37.1525 30.93 36.9555 30.3194 36.9555 29.4805H36.7555C36.7555 30.3472 36.9588 31.0159 37.3832 31.4679C37.8086 31.921 38.4399 32.1391 39.2578 32.1391V31.9391ZM36.9555 29.4805C36.9555 27.5044 37.7439 25.613 39.3329 23.8043L39.1827 23.6723C37.5686 25.5094 36.7555 27.4461 36.7555 29.4805H36.9555ZM39.3337 23.8034C41.6958 21.0519 44.0608 19.4353 46.427 18.9338L46.3855 18.7381C43.96 19.2522 41.5594 20.9038 39.1819 23.6731L39.3337 23.8034ZM46.4259 18.934C47.1381 18.7915 47.7431 18.7211 48.2422 18.7211V18.5211C47.7256 18.5211 47.1067 18.5939 46.3866 18.7379L46.4259 18.934ZM48.2422 18.7211C48.7464 18.7211 49.1334 18.76 49.4073 18.8348L49.4599 18.6418C49.1609 18.5603 48.7536 18.5211 48.2422 18.5211V18.7211ZM49.4123 18.836C49.7034 18.8993 49.9535 18.9935 50.1641 19.1174L50.2655 18.9451C50.0335 18.8085 49.7627 18.7075 49.4548 18.6406L49.4123 18.836ZM50.161 19.1155C50.6094 19.402 50.818 19.7449 50.818 20.1445H51.018C51.018 19.6588 50.7578 19.2595 50.2687 18.947L50.161 19.1155ZM50.818 20.1445C50.818 20.5618 50.7422 20.9593 50.5907 21.3379L50.7764 21.4121C50.9375 21.0094 51.018 20.5867 51.018 20.1445H50.818ZM50.7613 21.4379L52.6754 19.0747L52.5199 18.9488L50.6059 21.3121L50.7613 21.4379ZM52.5692 19.1076C52.928 19.2139 53.2632 19.268 53.5742 19.268V19.068C53.2862 19.068 52.9704 19.0179 52.6261 18.9158L52.5692 19.1076ZM53.5742 19.268C54.3429 19.268 54.9029 19.242 55.2496 19.1887L55.2192 18.991C54.8888 19.0418 54.342 19.068 53.5742 19.068V19.268ZM55.1574 19.026L48.5754 26.9557L48.7293 27.0834L55.3113 19.1537L55.1574 19.026ZM48.5764 26.9545C47.7935 27.8679 47.2037 28.6488 46.8091 29.2966C46.4169 29.9405 46.2086 30.4669 46.2086 30.8672H46.4086C46.4086 30.5253 46.5909 30.0393 46.9799 29.4007C47.3666 28.7659 47.9487 27.9941 48.7283 27.0846L48.5764 26.9545ZM46.2086 30.8672C46.2086 31.0959 46.2773 31.2841 46.4297 31.4124C46.5789 31.538 46.7918 31.5922 47.0508 31.5922V31.3922C46.815 31.3922 46.6568 31.3422 46.5586 31.2594C46.4636 31.1795 46.4086 31.0552 46.4086 30.8672H46.2086ZM47.0508 31.5922C47.5651 31.5922 48.1464 31.4367 48.7925 31.1335L48.7075 30.9524C48.0775 31.2481 47.526 31.3922 47.0508 31.3922V31.5922ZM48.7918 31.1338C49.4496 30.8312 50.0999 30.4436 50.7428 29.9712L50.6244 29.81C49.9912 30.2752 49.3525 30.6557 48.7082 30.9521L48.7918 31.1338ZM50.7428 29.9712C51.3845 29.4998 52.0062 28.9762 52.6082 28.4004L52.4699 28.2559C51.874 28.8259 51.2588 29.344 50.6244 29.81L50.7428 29.9712ZM52.6074 28.4011C53.2209 27.8268 53.7825 27.2653 54.292 26.7165L54.1455 26.5804C53.6394 27.1254 53.0812 27.6836 52.4707 28.2551L52.6074 28.4011ZM54.2912 26.7174C54.8132 26.1693 55.2704 25.6598 55.6628 25.189L55.5091 25.061C55.1202 25.5277 54.666 26.0338 54.1463 26.5795L54.2912 26.7174ZM55.6607 25.1914L56.5982 24.1367L56.4487 24.0039L55.5112 25.0586L55.6607 25.1914ZM56.4605 24.148L56.8707 24.4801L56.9965 24.3246L56.5864 23.9926L56.4605 24.148ZM56.8585 24.3363L55.8624 25.4691L56.0126 25.6012L57.0087 24.4684L56.8585 24.3363ZM55.8619 25.4697C53.9898 27.6343 52.2821 29.2536 50.7387 30.3311C49.1943 31.4092 47.8228 31.9391 46.6211 31.9391V32.1391C47.8804 32.1391 49.2921 31.5849 50.8531 30.4951C52.4152 29.4046 54.1352 27.772 56.0131 25.6006L55.8619 25.4697ZM41.1338 24.9442C39.2959 27.1731 38.357 29.0198 38.357 30.4766H38.557C38.557 29.0948 39.4541 27.2956 41.2881 25.0714L41.1338 24.9442ZM38.357 30.4766C38.357 30.815 38.433 31.0876 38.6024 31.2759C38.7737 31.4662 39.0247 31.5531 39.3359 31.5531V31.3531C39.0613 31.3531 38.8728 31.2773 38.7511 31.1421C38.6276 31.0049 38.557 30.7891 38.557 30.4766H38.357ZM39.3359 31.5531C40.3203 31.5531 41.5029 31.0105 42.8783 29.9553C44.2566 28.8978 45.8422 27.3148 47.6347 25.2094L47.4825 25.0797C45.6943 27.18 44.1191 28.7513 42.7565 29.7966C41.391 30.8443 40.2526 31.3531 39.3359 31.3531V31.5531ZM47.6355 25.2085L49.2761 23.2358L49.1223 23.1079L47.4817 25.0806L47.6355 25.2085ZM49.2827 23.2269C49.6749 22.6321 49.9709 22.1162 50.1692 21.6801C50.3665 21.2459 50.4711 20.882 50.4711 20.5938H50.2711C50.2711 20.8393 50.1804 21.1721 49.9871 21.5973C49.7947 22.0205 49.5048 22.5268 49.1157 23.1168L49.2827 23.2269ZM50.4711 20.5938C50.4711 20.1226 50.3532 19.7509 50.1 19.4976C49.8468 19.2444 49.475 19.1266 49.0039 19.1266V19.3266C49.4442 19.3266 49.7561 19.4366 49.9586 19.6391C50.1611 19.8416 50.2711 20.1534 50.2711 20.5938H50.4711ZM49.0039 19.1266C48.3591 19.1266 47.587 19.4005 46.6921 19.9316C45.7955 20.4637 44.7661 21.2595 43.6046 22.3167L43.7392 22.4646C44.8953 21.4124 45.9135 20.6262 46.7942 20.1036C47.6766 19.5799 48.4117 19.3266 49.0039 19.3266V19.1266ZM43.6042 22.317C42.8061 23.0497 41.9827 23.9255 41.1341 24.9438L41.2878 25.0718C42.1319 24.0589 42.9491 23.1899 43.7395 22.4643L43.6042 22.317ZM57.1094 31.6289L57.0912 31.7272L57.1516 31.7384L57.1889 31.6895L57.1094 31.6289ZM54.1211 31.7266L54.0392 31.6692L53.8858 31.8885L54.1453 31.8236L54.1211 31.7266ZM60.8984 22.0391L60.8171 21.9809L60.8165 21.9817L60.8984 22.0391ZM62.207 19.9297L62.1078 19.9177L62.1077 19.918L62.207 19.9297ZM58.2031 22.8594L58.2808 22.9223L58.2811 22.922L58.2031 22.8594ZM56.9531 24.4023L56.9978 24.4918L57.0172 24.4821L57.0308 24.4653L56.9531 24.4023ZM56.6211 24.3242L56.5458 24.3911L56.5547 24.399L56.6211 24.3242ZM56.543 24.0703L56.6137 24.1411L56.616 24.1386L56.543 24.0703ZM57.8125 22.5469L57.7333 22.4858L57.7331 22.4861L57.8125 22.5469ZM59.3164 20.75L59.3904 20.8173L59.3908 20.8169L59.3164 20.75ZM63.8672 20.8281L63.7729 20.7948L63.7723 20.7965L63.8672 20.8281ZM63.1836 22.0391L63.2648 22.0975L63.2651 22.097L63.1836 22.0391ZM59.082 27.7422L59.0008 27.6838L58.967 27.7308L58.991 27.7836L59.082 27.7422ZM59.1797 27.957L59.0886 27.9984L59.1514 28.1364L59.2535 28.0245L59.1797 27.957ZM66.1719 20.8281L66.1079 20.7512L66.1076 20.7515L66.1719 20.8281ZM69.1016 18.9141L69.129 19.0102L69.1303 19.0098L69.1016 18.9141ZM71.7383 18.7969L71.7004 18.8894L71.7018 18.89L71.7383 18.7969ZM72.9492 20.4766L72.8492 20.4739V20.4766H72.9492ZM72.6758 21.9219L72.5819 21.8873L72.5812 21.8895L72.6758 21.9219ZM71.7969 23.6797L71.8816 23.7328L71.882 23.7321L71.7969 23.6797ZM67.3828 29.1289L67.4551 29.198L67.4562 29.1968L67.3828 29.1289ZM66.0352 30.7109L66.1317 30.7373L66.1322 30.7352L66.0352 30.7109ZM69.4141 31.0039L69.4567 31.0944L69.4574 31.094L69.4141 31.0039ZM71.4648 29.7344L71.4048 29.6544L71.4041 29.6549L71.4648 29.7344ZM73.3789 28.0742L73.3082 28.0035L73.3789 28.0742ZM75.0195 26.3359L75.0946 26.402L75.0953 26.4012L75.0195 26.3359ZM76.2305 24.8906L76.3083 24.9534L76.3093 24.9522L76.2305 24.8906ZM76.8945 24.0703L76.9575 23.9926L76.8837 23.9329L76.8202 24.0034L76.8945 24.0703ZM77.3047 24.4023L77.3787 24.4696L77.4499 24.3913L77.3676 24.3246L77.3047 24.4023ZM76.6016 25.2617L76.6801 25.3236L76.6016 25.2617ZM75.332 26.7461L75.2579 26.6789L75.2571 26.6799L75.332 26.7461ZM73.6328 28.5234L73.5628 28.452L73.5621 28.4527L73.6328 28.5234ZM71.6406 30.2422L71.6996 30.323L71.7001 30.3225L71.6406 30.2422ZM64.7461 31.1602L64.825 31.0988L64.8247 31.0984L64.7461 31.1602ZM64.6289 29.6758L64.5316 29.6524L64.531 29.6554L64.6289 29.6758ZM65.1562 28.4453L65.0697 28.3951L65.0687 28.3969L65.1562 28.4453ZM67.7539 24.9688L67.6795 24.902L67.6791 24.9024L67.7539 24.9688ZM69.9805 22.4102L69.9022 22.348L69.9805 22.4102ZM70.8203 21.2578L70.9045 21.3117L70.9051 21.3108L70.8203 21.2578ZM64.082 23.4844L64.1518 23.556L64.1521 23.5557L64.082 23.4844ZM58.9258 29.2461L58.8482 29.1829L58.8463 29.1855L58.9258 29.2461ZM57.1276 31.5306C56.769 31.4642 56.3721 31.4313 55.9375 31.4313V31.6312C56.3623 31.6312 56.7467 31.6634 57.0912 31.7272L57.1276 31.5306ZM55.9375 31.4313C55.2414 31.4313 54.6275 31.4969 54.0968 31.6295L54.1453 31.8236C54.6564 31.6958 55.2534 31.6312 55.9375 31.6312V31.4313ZM54.203 31.7839L60.9804 22.0964L60.8165 21.9817L54.0392 31.6692L54.203 31.7839ZM60.9798 22.0972C61.4035 21.5041 61.7255 21.03 61.9453 20.6758C62.0552 20.4987 62.1403 20.3502 62.2 20.2308C62.258 20.1149 62.2976 20.0157 62.3063 19.9414L62.1077 19.918C62.1034 19.9544 62.0788 20.026 62.0212 20.1413C61.9653 20.253 61.8836 20.3958 61.7754 20.5703C61.559 20.9192 61.2398 21.3891 60.8171 21.9809L60.9798 22.0972ZM62.3063 19.9417C62.3334 19.7186 62.3148 19.5292 62.2279 19.3926C62.1361 19.2483 61.983 19.1852 61.7969 19.1852V19.3852C61.9362 19.3852 62.0143 19.4295 62.0592 19.5C62.109 19.5783 62.1328 19.7111 62.1078 19.9177L62.3063 19.9417ZM61.7969 19.1852C61.6425 19.1852 61.4548 19.277 61.2434 19.427C61.027 19.5805 60.7678 19.8082 60.4666 20.1078C59.8637 20.7074 59.083 21.6044 58.1252 22.7967L58.2811 22.922C59.2373 21.7316 60.0126 20.8414 60.6076 20.2496C60.9053 19.9535 61.1556 19.7345 61.3591 19.5901C61.5676 19.4422 61.7103 19.3852 61.7969 19.3852V19.1852ZM58.1254 22.7964L56.8754 24.3394L57.0308 24.4653L58.2808 22.9223L58.1254 22.7964ZM56.9084 24.3129C56.8767 24.3288 56.8469 24.3321 56.8149 24.3245C56.7807 24.3165 56.7382 24.2945 56.6875 24.2495L56.5547 24.399C56.6212 24.4581 56.6926 24.5012 56.7691 24.5192C56.8478 24.5377 56.9254 24.528 56.9978 24.4918L56.9084 24.3129ZM56.6958 24.2578C56.647 24.2029 56.6257 24.1653 56.619 24.1434C56.616 24.1337 56.6173 24.1315 56.6168 24.1342C56.6165 24.1356 56.616 24.1373 56.6151 24.1389C56.6142 24.1405 56.6135 24.1412 56.6137 24.141L56.4723 23.9996C56.4142 24.0576 56.4066 24.1331 56.4279 24.2023C56.4472 24.265 56.491 24.3284 56.5464 24.3907L56.6958 24.2578ZM56.616 24.1386C56.9965 23.7319 57.4219 23.2213 57.8919 22.6077L57.7331 22.4861C57.2656 23.0964 56.8446 23.6015 56.4699 24.002L56.616 24.1386ZM57.8917 22.6079C58.3719 21.985 58.8714 21.3881 59.3904 20.8173L59.2424 20.6827C58.7197 21.2577 58.2167 21.8587 57.7333 22.4858L57.8917 22.6079ZM59.3908 20.8169C60.0257 20.1107 60.6037 19.585 61.1249 19.2364C61.6469 18.8874 62.1043 18.7211 62.5 18.7211V18.5211C62.0493 18.5211 61.553 18.7096 61.0137 19.0702C60.4737 19.4313 59.8832 19.9701 59.242 20.6831L59.3908 20.8169ZM62.5 18.7211C63.2048 18.7211 63.631 18.9026 63.831 19.2255C64.0338 19.5529 64.0309 20.066 63.7729 20.7948L63.9615 20.8615C64.2243 20.1189 64.254 19.5285 64.001 19.1202C63.7453 18.7074 63.2274 18.5211 62.5 18.5211V18.7211ZM63.7723 20.7965C63.6729 21.0948 63.4519 21.4888 63.1021 21.9811L63.2651 22.097C63.6184 21.5997 63.8532 21.1864 63.9621 20.8597L63.7723 20.7965ZM63.1024 21.9807L59.0008 27.6838L59.1632 27.8006L63.2648 22.0974L63.1024 21.9807ZM58.991 27.7836L59.0886 27.9984L59.2707 27.9157L59.1731 27.7008L58.991 27.7836ZM59.2535 28.0245C62.5352 24.4303 64.8618 22.0587 66.2362 20.9047L66.1076 20.7515C64.7216 21.9152 62.3867 24.2963 59.1058 27.8896L59.2535 28.0245ZM66.2358 20.905C66.8916 20.3596 67.4614 19.9292 67.9453 19.613C68.4305 19.296 68.8243 19.0973 69.129 19.0102L69.0741 18.8179C68.7408 18.9131 68.3273 19.1246 67.8359 19.4456C67.3433 19.7674 66.7672 20.2029 66.1079 20.7512L66.2358 20.905ZM69.1303 19.0098C69.7775 18.8157 70.2941 18.7211 70.6836 18.7211V18.5211C70.2658 18.5211 69.7278 18.6218 69.0728 18.8183L69.1303 19.0098ZM70.6836 18.7211C71.0915 18.7211 71.4294 18.7785 71.7004 18.8894L71.7761 18.7043C71.4743 18.5808 71.109 18.5211 70.6836 18.5211V18.7211ZM71.7018 18.89C71.9916 19.0034 72.2198 19.1464 72.3902 19.3168L72.5316 19.1754C72.3375 18.9812 72.084 18.8248 71.7747 18.7038L71.7018 18.89ZM72.3902 19.3168C72.7092 19.6358 72.8615 20.0193 72.8493 20.4739L73.0492 20.4793C73.0629 19.9703 72.8898 19.5335 72.5316 19.1754L72.3902 19.3168ZM72.8492 20.4766C72.8492 20.9321 72.7607 21.4022 72.5819 21.8873L72.7696 21.9564C72.9555 21.452 73.0492 20.9585 73.0492 20.4766H72.8492ZM72.5812 21.8895C72.4152 22.3747 72.1263 22.9536 71.7117 23.6273L71.882 23.7321C72.3008 23.0516 72.5978 22.4587 72.7704 21.9542L72.5812 21.8895ZM71.7121 23.6266C70.8447 25.0119 69.3784 26.8228 67.3094 29.061L67.4562 29.1968C69.5279 26.9558 71.0042 25.134 71.8816 23.7328L71.7121 23.6266ZM67.3105 29.0598C66.8804 29.5095 66.5517 29.8675 66.3252 30.1334C66.2121 30.2662 66.1234 30.3773 66.06 30.466C65.9998 30.5503 65.9531 30.6268 65.9381 30.6867L66.1322 30.7352C66.1367 30.7169 66.1609 30.6689 66.2227 30.5823C66.2814 30.5002 66.366 30.394 66.4775 30.2631C66.7002 30.0016 67.0259 29.6468 67.4551 29.198L67.3105 29.0598ZM65.9387 30.6846C65.899 30.8302 65.8766 30.9512 65.8766 31.043H66.0766C66.0766 30.9785 66.0932 30.8781 66.1316 30.7372L65.9387 30.6846ZM65.8766 31.043C65.8766 31.1423 65.9103 31.2313 65.9761 31.3057C66.0401 31.3781 66.1306 31.4325 66.2391 31.4735C66.4549 31.5548 66.7674 31.5922 67.168 31.5922V31.3922C66.7743 31.3922 66.491 31.3547 66.3097 31.2863C66.2197 31.2524 66.1613 31.2132 66.1259 31.1733C66.0924 31.1354 66.0766 31.0934 66.0766 31.043H65.8766ZM67.168 31.5922C67.9891 31.5922 68.7525 31.4265 69.4567 31.0943L69.3714 30.9135C68.6954 31.2323 67.9614 31.3922 67.168 31.3922V31.5922ZM69.4574 31.094C70.1671 30.7523 70.8565 30.3255 71.5256 29.8138L71.4041 29.6549C70.7451 30.1589 70.0673 30.5784 69.3707 30.9138L69.4574 31.094ZM71.5248 29.8144C72.2057 29.3037 72.8473 28.7472 73.4496 28.1449L73.3082 28.0035C72.7126 28.5991 72.0781 29.1494 71.4048 29.6544L71.5248 29.8144ZM73.4496 28.1449C74.0628 27.5317 74.6112 26.9508 75.0946 26.402L74.9445 26.2698C74.4643 26.8149 73.919 27.3928 73.3082 28.0035L73.4496 28.1449ZM75.0953 26.4012C75.5775 25.8408 75.9819 25.3581 76.3083 24.9534L76.1526 24.8279C75.828 25.2304 75.4251 25.7113 74.9437 26.2707L75.0953 26.4012ZM76.3093 24.9522C76.6352 24.5351 76.8544 24.2644 76.9689 24.1372L76.8202 24.0034C76.7003 24.1366 76.4768 24.4129 76.1517 24.8291L76.3093 24.9522ZM76.8316 24.148L77.2418 24.4801L77.3676 24.3246L76.9575 23.9926L76.8316 24.148ZM77.2307 24.3351C77.0978 24.4813 76.8613 24.7705 76.523 25.1998L76.6801 25.3236C77.0189 24.8936 77.2512 24.6098 77.3787 24.4696L77.2307 24.3351ZM76.523 25.1998C76.1863 25.6272 75.7648 26.1201 75.258 26.6789L75.4061 26.8133C75.9149 26.2523 76.3397 25.7556 76.6801 25.3236L76.523 25.1998ZM75.2571 26.6799C74.7642 27.2377 74.1995 27.8284 73.5628 28.452L73.7028 28.5949C74.3422 27.9685 74.9103 27.3743 75.407 26.8123L75.2571 26.6799ZM73.5621 28.4527C72.9406 29.0743 72.2802 29.644 71.5811 30.1618L71.7001 30.3225C72.4073 29.7987 73.0751 29.2226 73.7035 28.5941L73.5621 28.4527ZM71.5817 30.1614C69.9496 31.3531 68.4859 31.9391 67.1875 31.9391V32.1391C68.5454 32.1391 70.0504 31.5271 71.6996 30.3229L71.5817 30.1614ZM67.1875 31.9391C66.0285 31.9391 65.253 31.649 64.825 31.0988L64.6672 31.2215C65.1507 31.8432 66.0028 32.1391 67.1875 32.1391V31.9391ZM64.8247 31.0984C64.6963 30.9349 64.6312 30.7422 64.6312 30.5156H64.4313C64.4313 30.7838 64.5094 31.0208 64.6675 31.2219L64.8247 31.0984ZM64.6312 30.5156C64.6312 30.2767 64.6627 30.0038 64.7268 29.6962L64.531 29.6554C64.4649 29.9728 64.4313 30.2597 64.4313 30.5156H64.6312ZM64.7261 29.6991C64.8012 29.3863 64.9721 28.9852 65.2438 28.4937L65.0687 28.3969C64.7935 28.895 64.6128 29.3142 64.5317 29.6524L64.7261 29.6991ZM65.2427 28.4955C65.8504 27.4483 66.7118 26.2949 67.8287 25.0351L67.6791 24.9024C66.5564 26.1687 65.6861 27.333 65.0698 28.3951L65.2427 28.4955ZM67.8284 25.0355C68.9608 23.7729 69.705 22.9178 70.0588 22.4723L69.9022 22.348C69.5528 22.7879 68.8126 23.6386 67.6795 24.902L67.8284 25.0355ZM70.0588 22.4723C70.4116 22.0281 70.6937 21.6411 70.9045 21.3117L70.7361 21.2039C70.5302 21.5256 70.2525 21.9068 69.9022 22.348L70.0588 22.4723ZM70.9051 21.3108C71.2965 20.6846 71.5062 20.1817 71.5062 19.8125H71.3063C71.3063 20.1204 71.1254 20.581 70.7355 21.2048L70.9051 21.3108ZM71.5062 19.8125C71.5062 19.5537 71.4185 19.3451 71.2319 19.2052C71.0507 19.0693 70.7909 19.0094 70.4688 19.0094V19.2094C70.7716 19.2094 70.9806 19.2667 71.1119 19.3652C71.2378 19.4596 71.3063 19.6025 71.3063 19.8125H71.5062ZM70.4688 19.0094C69.7921 19.0094 68.916 19.3895 67.8488 20.1206C66.7775 20.8545 65.4983 21.9528 64.0119 23.413L64.1521 23.5557C65.6345 22.0993 66.9042 21.0101 67.9618 20.2856C69.0234 19.5584 69.8564 19.2094 70.4688 19.2094V19.0094ZM64.0123 23.4127C62.5112 24.8747 60.7898 26.7984 58.8482 29.183L59.0033 29.3092C60.942 26.9282 62.6581 25.0107 64.1518 23.556L64.0123 23.4127ZM58.8463 29.1855L57.0298 31.5683L57.1889 31.6895L59.0053 29.3067L58.8463 29.1855ZM77.6172 31.0625L77.5762 30.9713L77.5755 30.9716L77.6172 31.0625ZM81.3281 28.4844L81.3964 28.5575L81.3972 28.5567L81.3281 28.4844ZM84.3359 25.2812L84.2593 25.217L84.2593 25.217L84.3359 25.2812ZM85.3516 24.0703L85.4127 23.9912L85.3367 23.9324L85.2749 24.0061L85.3516 24.0703ZM85.7812 24.4023L85.8568 24.4678L85.9261 24.3879L85.8424 24.3232L85.7812 24.4023ZM84.7656 25.5742L84.69 25.5087L84.6892 25.5098L84.7656 25.5742ZM74.0039 31.6094L74.0671 31.5318L74.0657 31.5307L74.0039 31.6094ZM73.5156 29.832L73.6143 29.8494L73.6149 29.8437L73.5156 29.832ZM73.7109 29.1094L73.8038 29.1465L73.8044 29.145L73.7109 29.1094ZM74.1797 28.1523L74.2665 28.202L74.2678 28.1996L74.1797 28.1523ZM74.9805 26.8242L74.8983 26.7672L74.8966 26.7697L74.9805 26.8242ZM78.0273 22.4297L77.9458 22.3718L77.9452 22.3727L78.0273 22.4297ZM83.0664 15.3398L83.1479 15.3978L83.2602 15.2398H83.0664V15.3398ZM83.457 14.7734V14.8734H83.5086L83.5385 14.8314L83.457 14.7734ZM87.0703 9.69531L87.0858 9.59653L87.0247 9.58692L86.9888 9.63734L87.0703 9.69531ZM89.7852 9.69531L89.8654 9.75492L90.0117 9.55794L89.7694 9.59656L89.7852 9.69531ZM86.0156 14.7734L85.9353 14.7138L85.8169 14.8734H86.0156V14.7734ZM85.5859 15.3398V15.2398H85.5353L85.5054 15.2806L85.5859 15.3398ZM77.5 26.3359L77.4194 26.2767L77.4184 26.2781L77.5 26.3359ZM75.1172 29.9688L75.2082 30.0103L75.2091 30.0081L75.1172 29.9688ZM74.7047 30.8672C74.7047 31.0944 74.7984 31.2751 74.9848 31.3955C75.1639 31.5112 75.4203 31.566 75.7401 31.5726L75.7443 31.3727C75.4391 31.3663 75.2267 31.3137 75.0933 31.2275C74.9673 31.1461 74.9047 31.0306 74.9047 30.8672H74.7047ZM75.7401 31.5726C76.3816 31.586 77.0215 31.4455 77.6589 31.1534L77.5755 30.9716C76.9628 31.2524 76.3527 31.3854 75.7443 31.3727L75.7401 31.5726ZM77.6581 31.1537C78.3026 30.8644 78.9397 30.4965 79.5695 30.0504L79.4539 29.8871C78.8337 30.3265 78.2078 30.6877 77.5762 30.9713L77.6581 31.1537ZM79.5695 30.0504C80.1983 29.6049 80.8073 29.1073 81.3964 28.5575L81.2599 28.4113C80.6771 28.9552 80.0751 29.4472 79.4539 29.8871L79.5695 30.0504ZM81.3972 28.5567C81.9845 27.9955 82.5328 27.4407 83.042 26.8923L82.8955 26.7562C82.3891 27.3015 81.8437 27.8534 81.259 28.4121L81.3972 28.5567ZM83.042 26.8923C83.5508 26.3444 84.0077 25.8288 84.4126 25.3455L84.2593 25.217C83.8569 25.6973 83.4023 26.2103 82.8955 26.7562L83.042 26.8923ZM84.4126 25.3455L85.4282 24.1346L85.2749 24.0061L84.2593 25.217L84.4126 25.3455ZM85.2904 24.1494L85.7201 24.4815L85.8424 24.3232L85.4127 23.9912L85.2904 24.1494ZM85.7057 24.3369L84.6901 25.5087L84.8412 25.6397L85.8568 24.4678L85.7057 24.3369ZM84.6892 25.5098C82.8758 27.6611 81.2105 29.2704 79.6933 30.3411C78.1754 31.4124 76.8137 31.9391 75.6055 31.9391V32.1391C76.8712 32.1391 78.2732 31.5882 79.8086 30.5046C81.3449 29.4203 83.0227 27.7972 84.8421 25.6387L84.6892 25.5098ZM75.6055 31.9391C74.8998 31.9391 74.393 31.7975 74.0671 31.5319L73.9407 31.6869C74.3179 31.9942 74.8788 32.1391 75.6055 32.1391V31.9391ZM74.0657 31.5307C73.7157 31.2558 73.557 30.9694 73.557 30.6719H73.357C73.357 31.0514 73.5629 31.3901 73.9421 31.688L74.0657 31.5307ZM73.557 30.6719C73.557 30.3366 73.5764 30.0629 73.6141 29.8494L73.4171 29.8147C73.3767 30.0438 73.357 30.3301 73.357 30.6719H73.557ZM73.6149 29.8437C73.6397 29.633 73.7021 29.4008 73.8038 29.1465L73.6181 29.0722C73.5115 29.3388 73.4436 29.5884 73.4163 29.8203L73.6149 29.8437ZM73.8044 29.145C73.9061 28.878 74.0597 28.5638 74.2665 28.202L74.0929 28.1027C73.883 28.47 73.7241 28.7939 73.6175 29.0738L73.8044 29.145ZM74.2678 28.1996C74.4613 27.8384 74.7266 27.3982 75.0643 26.8787L74.8966 26.7697C74.5572 27.2919 74.2887 27.7372 74.0915 28.1051L74.2678 28.1996ZM75.0626 26.8812L78.1095 22.4867L77.9452 22.3727L74.8983 26.7672L75.0626 26.8812ZM78.1089 22.4876L83.1479 15.3978L82.9849 15.2819L77.9458 22.3718L78.1089 22.4876ZM83.0664 15.2398H81.5234V15.4398H83.0664V15.2398ZM81.5234 15.2398C81.3327 15.2398 81.2039 15.2171 81.1263 15.1809C81.0887 15.1633 81.0675 15.1446 81.0555 15.1279C81.0442 15.1122 81.0375 15.093 81.0375 15.0664H80.8375C80.8375 15.131 80.8552 15.1916 80.8927 15.2442C80.9296 15.2958 80.9816 15.334 81.0417 15.3621C81.1594 15.417 81.3235 15.4398 81.5234 15.4398V15.2398ZM81.0375 15.0664C81.0375 15.0407 81.0449 15.021 81.0603 15.0028C81.0772 14.9827 81.1077 14.9603 81.1598 14.9397C81.2656 14.8979 81.4359 14.8734 81.6797 14.8734V14.6734C81.4286 14.6734 81.2278 14.6978 81.0863 14.7537C81.0147 14.7819 80.9524 14.8205 80.9075 14.8737C80.861 14.9287 80.8375 14.9944 80.8375 15.0664H81.0375ZM81.6797 14.8734H83.457V14.6734H81.6797V14.8734ZM83.5385 14.8314L87.1518 9.75329L86.9888 9.63734L83.3755 14.7155L83.5385 14.8314ZM87.0548 9.7941C87.9765 9.93893 88.892 9.93897 89.8009 9.79407L89.7694 9.59656C88.8815 9.73811 87.9871 9.73815 87.0858 9.59653L87.0548 9.7941ZM89.7049 9.63571L85.9353 14.7138L86.0959 14.833L89.8654 9.75492L89.7049 9.63571ZM86.0156 14.8734H91.0547V14.6734H86.0156V14.8734ZM91.0547 14.8734C91.2313 14.8734 91.3482 14.8976 91.4176 14.9348C91.4508 14.9526 91.4706 14.972 91.4825 14.9911C91.4941 15.0098 91.5016 15.0337 91.5016 15.0664H91.7016C91.7016 15.0014 91.6862 14.9399 91.6523 14.8854C91.6186 14.8312 91.57 14.7896 91.5121 14.7585C91.3992 14.6981 91.2426 14.6734 91.0547 14.6734V14.8734ZM91.5016 15.0664C91.5016 15.0966 91.495 15.1183 91.4851 15.1349C91.4752 15.1516 91.4587 15.1685 91.4306 15.1842C91.3715 15.2173 91.27 15.2398 91.1133 15.2398V15.4398C91.2821 15.4398 91.4247 15.4168 91.5284 15.3587C91.5817 15.3289 91.6262 15.2889 91.657 15.2372C91.6878 15.1854 91.7016 15.1273 91.7016 15.0664H91.5016ZM91.1133 15.2398H85.5859V15.4398H91.1133V15.2398ZM85.5054 15.2806L77.4194 26.2767L77.5806 26.3952L85.6665 15.3991L85.5054 15.2806ZM77.4184 26.2781C76.7215 27.2616 76.1738 28.057 75.7758 28.6639C75.3793 29.2683 75.127 29.6921 75.0253 29.9294L75.2091 30.0081C75.3027 29.7897 75.5451 29.3802 75.943 28.7736C76.3392 28.1696 76.8853 27.3764 77.5816 26.3938L77.4184 26.2781ZM75.0262 29.9272C74.9214 30.1565 74.8419 30.3484 74.7884 30.5023C74.736 30.6529 74.7047 30.7774 74.7047 30.8672H74.9047C74.9047 30.8137 74.9255 30.7169 74.9773 30.568C75.0279 30.4224 75.1046 30.2368 75.2081 30.0103L75.0262 29.9272ZM92.207 28.3281L92.1284 28.2662L92.1272 28.268L92.207 28.3281ZM93.4375 26.7656L93.5161 26.8275L93.5988 26.7224L93.4746 26.6728L93.4375 26.7656ZM93.2422 26.6875L93.2793 26.5947L93.211 26.5673L93.1645 26.6245L93.2422 26.6875ZM87.0508 31.7656L87.0831 31.8603L87.0843 31.8598L87.0508 31.7656ZM85.6641 23.7383L85.7392 23.8043L85.7399 23.8034L85.6641 23.7383ZM92.8125 18.8359L92.7929 18.7379L92.7918 18.7381L92.8125 18.8359ZM95.8398 18.7383L95.8135 18.8349L95.8186 18.836L95.8398 18.7383ZM96.6211 19.0312L96.675 18.9469L96.6718 18.9451L96.6211 19.0312ZM97.0898 21.375L96.997 21.3379L97.1676 21.4379L97.0898 21.375ZM99.0039 19.0117L99.0323 18.9158L98.9683 18.8969L98.9262 18.9488L99.0039 19.0117ZM101.641 19.0898L101.718 19.1537L101.886 18.9509L101.625 18.991L101.641 19.0898ZM95.0586 27.0195L95.1345 27.0846L95.1355 27.0834L95.0586 27.0195ZM95.1562 31.043L95.1145 30.9521L95.1138 30.9524L95.1562 31.043ZM98.9453 28.3281L98.877 28.2551L98.8762 28.2559L98.9453 28.3281ZM100.625 26.6484L100.553 26.5795L100.552 26.5804L100.625 26.6484ZM101.992 25.125L101.917 25.0585L101.915 25.061L101.992 25.125ZM102.93 24.0703L102.993 23.9926L102.918 23.9325L102.855 24.0039L102.93 24.0703ZM103.34 24.4023L103.415 24.4684L103.484 24.3902L103.403 24.3246L103.34 24.4023ZM102.344 25.5352L102.269 25.4691L102.268 25.4697L102.344 25.5352ZM87.6172 25.0078L87.5404 24.9438L87.54 24.9442L87.6172 25.0078ZM93.9648 25.1445L94.041 25.2094L94.0417 25.2085L93.9648 25.1445ZM95.6055 23.1719L95.6828 23.2362L95.689 23.2269L95.6055 23.1719ZM90.0781 22.3906L90.0108 22.3167L90.0105 22.317L90.0781 22.3906ZM93.0273 31.9391C92.3834 31.9391 91.9173 31.8387 91.6152 31.6513C91.321 31.4689 91.1742 31.1994 91.1742 30.8281H90.9742C90.9742 31.2641 91.153 31.6001 91.5098 31.8213C91.8587 32.0376 92.3692 32.1391 93.0273 32.1391V31.9391ZM91.1742 30.8281C91.1742 30.198 91.5348 29.3868 92.2869 28.3883L92.1272 28.268C91.3689 29.2746 90.9742 30.1302 90.9742 30.8281H91.1742ZM92.2856 28.39L93.5161 26.8275L93.3589 26.7038L92.1285 28.2663L92.2856 28.39ZM93.4746 26.6728L93.2793 26.5947L93.205 26.7803L93.4004 26.8585L93.4746 26.6728ZM93.1645 26.6245C90.9816 29.3142 88.9319 30.9903 87.0173 31.6714L87.0843 31.8598C89.0498 31.1607 91.1278 29.4514 93.3198 26.7505L93.1645 26.6245ZM87.0185 31.671C86.4908 31.8512 86.04 31.9391 85.6641 31.9391V32.1391C86.0694 32.1391 86.543 32.0447 87.0831 31.8603L87.0185 31.671ZM85.6641 31.9391C84.8804 31.9391 84.3105 31.7307 83.9352 31.331C83.5588 30.93 83.3617 30.3194 83.3617 29.4805H83.1617C83.1617 30.3472 83.3651 31.0159 83.7894 31.4679C84.2149 31.921 84.8462 32.1391 85.6641 32.1391V31.9391ZM83.3617 29.4805C83.3617 27.5044 84.1501 25.613 85.7392 23.8043L85.5889 23.6723C83.9749 25.5094 83.1617 27.4461 83.1617 29.4805H83.3617ZM85.7399 23.8034C88.1021 21.0519 90.4671 19.4353 92.8332 18.9338L92.7918 18.7381C90.3663 19.2522 87.9656 20.9038 85.5882 23.6731L85.7399 23.8034ZM92.8321 18.934C93.5443 18.7915 94.1494 18.7211 94.6484 18.7211V18.5211C94.1319 18.5211 93.5129 18.5939 92.7929 18.7379L92.8321 18.934ZM94.6484 18.7211C95.1527 18.7211 95.5396 18.76 95.8135 18.8348L95.8662 18.6418C95.5672 18.5603 95.1598 18.5211 94.6484 18.5211V18.7211ZM95.8186 18.836C96.1097 18.8993 96.3598 18.9935 96.5704 19.1174L96.6718 18.9451C96.4397 18.8085 96.169 18.7075 95.8611 18.6406L95.8186 18.836ZM96.5673 19.1155C97.0157 19.402 97.2242 19.7449 97.2242 20.1445H97.4242C97.4242 19.6588 97.164 19.2595 96.6749 18.947L96.5673 19.1155ZM97.2242 20.1445C97.2242 20.5618 97.1484 20.9593 96.997 21.3379L97.1827 21.4121C97.3438 21.0094 97.4242 20.5867 97.4242 20.1445H97.2242ZM97.1676 21.4379L99.0816 19.0747L98.9262 18.9488L97.0121 21.3121L97.1676 21.4379ZM98.9755 19.1076C99.3343 19.2139 99.6695 19.268 99.9805 19.268V19.068C99.6925 19.068 99.3766 19.0179 99.0323 18.9158L98.9755 19.1076ZM99.9805 19.268C100.749 19.268 101.309 19.242 101.656 19.1887L101.625 18.991C101.295 19.0418 100.748 19.068 99.9805 19.068V19.268ZM101.564 19.026L94.9816 26.9557L95.1355 27.0834L101.718 19.1537L101.564 19.026ZM94.9827 26.9545C94.1997 27.8679 93.61 28.6488 93.2154 29.2966C92.8232 29.9405 92.6148 30.4669 92.6148 30.8672H92.8148C92.8148 30.5253 92.9971 30.0393 93.3862 29.4007C93.7729 28.7659 94.355 27.9941 95.1345 27.0846L94.9827 26.9545ZM92.6148 30.8672C92.6148 31.0959 92.6835 31.2841 92.836 31.4124C92.9851 31.538 93.198 31.5922 93.457 31.5922V31.3922C93.2213 31.3922 93.0631 31.3422 92.9648 31.2594C92.8698 31.1795 92.8148 31.0552 92.8148 30.8672H92.6148ZM93.457 31.5922C93.9714 31.5922 94.5527 31.4367 95.1987 31.1335L95.1138 30.9524C94.4838 31.2481 93.9323 31.3922 93.457 31.3922V31.5922ZM95.198 31.1338C95.8558 30.8312 96.5061 30.4436 97.149 29.9712L97.0306 29.81C96.3975 30.2752 95.7588 30.6557 95.1145 30.9521L95.198 31.1338ZM97.149 29.9712C97.7907 29.4998 98.4125 28.9762 99.0144 28.4004L98.8762 28.2559C98.2802 28.8259 97.665 29.344 97.0306 29.81L97.149 29.9712ZM99.0137 28.4011C99.6271 27.8268 100.189 27.2653 100.698 26.7165L100.552 26.5804C100.046 27.1254 99.4874 27.6836 98.877 28.2551L99.0137 28.4011ZM100.697 26.7174C101.219 26.1693 101.677 25.6598 102.069 25.189L101.915 25.061C101.526 25.5277 101.072 26.0338 100.553 26.5795L100.697 26.7174ZM102.067 25.1914L103.004 24.1367L102.855 24.0039L101.917 25.0586L102.067 25.1914ZM102.867 24.148L103.277 24.4801L103.403 24.3246L102.993 23.9926L102.867 24.148ZM103.265 24.3363L102.269 25.4691L102.419 25.6012L103.415 24.4684L103.265 24.3363ZM102.268 25.4697C100.396 27.6343 98.6883 29.2536 97.1449 30.3311C95.6005 31.4092 94.229 31.9391 93.0273 31.9391V32.1391C94.2866 32.1391 95.6983 31.5849 97.2594 30.4951C98.8214 29.4046 100.541 27.772 102.419 25.6006L102.268 25.4697ZM87.54 24.9442C85.7021 27.1731 84.7633 29.0198 84.7633 30.4766H84.9633C84.9633 29.0948 85.8604 27.2956 87.6943 25.0714L87.54 24.9442ZM84.7633 30.4766C84.7633 30.815 84.8392 31.0876 85.0087 31.2759C85.1799 31.4662 85.4309 31.5531 85.7422 31.5531V31.3531C85.4675 31.3531 85.279 31.2773 85.1573 31.1421C85.0338 31.0049 84.9633 30.7891 84.9633 30.4766H84.7633ZM85.7422 31.5531C86.7265 31.5531 87.9091 31.0105 89.2845 29.9553C90.6628 28.8978 92.2484 27.3148 94.041 25.2094L93.8887 25.0797C92.1005 27.18 90.5253 28.7513 89.1628 29.7966C87.7973 30.8443 86.6589 31.3531 85.7422 31.3531V31.5531ZM94.0417 25.2085L95.6824 23.2358L95.5286 23.1079L93.888 25.0806L94.0417 25.2085ZM95.689 23.2269C96.0812 22.6321 96.3772 22.1162 96.5754 21.6801C96.7728 21.2459 96.8773 20.882 96.8773 20.5938H96.6773C96.6773 20.8393 96.5866 21.1721 96.3933 21.5973C96.201 22.0205 95.911 22.5268 95.522 23.1168L95.689 23.2269ZM96.8773 20.5938C96.8773 20.1226 96.7595 19.7509 96.5063 19.4976C96.253 19.2444 95.8813 19.1266 95.4102 19.1266V19.3266C95.8505 19.3266 96.1623 19.4366 96.3648 19.6391C96.5673 19.8416 96.6773 20.1534 96.6773 20.5938H96.8773ZM95.4102 19.1266C94.7654 19.1266 93.9933 19.4005 93.0984 19.9316C92.2017 20.4637 91.1724 21.2595 90.0108 22.3167L90.1454 22.4646C91.3016 21.4124 92.3198 20.6262 93.2004 20.1036C94.0829 19.5799 94.8179 19.3266 95.4102 19.3266V19.1266ZM90.0105 22.317C89.2123 23.0497 88.389 23.9255 87.5404 24.9438L87.694 25.0718C88.5381 24.0589 89.3554 23.1899 90.1458 22.4643L90.0105 22.317ZM108.828 28.4062L108.734 28.3716L108.692 28.485L108.812 28.5049L108.828 28.4062ZM111.328 27.4688L111.266 27.3901L111.265 27.3912L111.328 27.4688ZM112.402 26.5312L112.472 26.6033L112.473 26.602L112.402 26.5312ZM113.359 25.5352L113.286 25.4675L113.286 25.4676L113.359 25.5352ZM114.141 24.6562L114.217 24.7211L114.22 24.7171L114.141 24.6562ZM114.59 24.0703L114.651 23.9912L114.572 23.9298L114.51 24.0095L114.59 24.0703ZM115.02 24.4023L115.09 24.4731L115.171 24.3927L115.081 24.3232L115.02 24.4023ZM114.414 25.0469L114.34 24.9798L114.339 24.981L114.414 25.0469ZM113.594 25.9844L113.667 26.0524L113.669 26.0502L113.594 25.9844ZM108.652 28.875L108.677 28.778L108.596 28.7579L108.561 28.8333L108.652 28.875ZM98.3008 31.3359L98.2272 31.4037L98.2282 31.4047L98.3008 31.3359ZM98.2227 28.7969L98.3045 28.8545L98.3068 28.851L98.2227 28.7969ZM99.0625 27.8984L99.1209 27.9796L99.1212 27.9794L99.0625 27.8984ZM101.641 27.918L101.741 27.9295V27.918H101.641ZM100.781 28.6797L100.811 28.7753L100.811 28.775L100.781 28.6797ZM99.8242 28.6016L99.7642 28.6816L99.7654 28.6824L99.8242 28.6016ZM99.4531 28.3477L99.5027 28.2608L99.4364 28.2229L99.3824 28.2769L99.4531 28.3477ZM99.1602 28.6211L99.2227 28.6993L99.2266 28.6958L99.1602 28.6211ZM98.7891 28.9922L98.7117 28.9289L98.7115 28.929L98.7891 28.9922ZM99.6094 31.4727L99.6432 31.3785L99.6421 31.3782L99.6094 31.4727ZM102.91 31.3945L102.874 31.3014L102.873 31.3017L102.91 31.3945ZM104.668 30.2227L104.599 30.1502L104.599 30.1503L104.668 30.2227ZM107.227 23.5625L107.326 23.5669L107.326 23.5664L107.227 23.5625ZM107.949 18.9141L108.043 18.948L108.044 18.9457L107.949 18.9141ZM107.969 18.7383H108.069V18.457L107.891 18.6752L107.969 18.7383ZM103.359 24.4023L103.436 24.4664L103.437 24.4655L103.359 24.4023ZM102.793 25.0078L102.85 25.0898L102.854 25.0867L102.793 25.0078ZM102.598 25.1445L102.606 25.2442L102.633 25.2419L102.655 25.2265L102.598 25.1445ZM102.285 25.0273L102.191 25.0648L102.198 25.077L102.285 25.0273ZM102.461 24.6562L102.384 24.592L102.382 24.5945L102.461 24.6562ZM108.125 17.8203L108.205 17.8809L108.218 17.8628L108.223 17.8404L108.125 17.8203ZM109.688 16.4727L109.624 16.5501L109.628 16.5527L109.688 16.4727ZM109.922 16.9219L110.022 16.9271V16.9219H109.922ZM109.316 17.9766L109.24 17.9115L109.24 17.9117L109.316 17.9766ZM108.613 18.8359L108.531 18.7786L108.53 18.7805L108.613 18.8359ZM108.457 19.1484L108.552 19.1801L108.553 19.1759L108.457 19.1484ZM108.418 19.6172L108.518 19.6209V19.6172H108.418ZM108.516 20.8672L108.615 20.8523L108.614 20.8512L108.516 20.8672ZM109.004 24.1094L108.905 24.1243L108.905 24.1253L109.004 24.1094ZM108.812 28.5049C108.975 28.5322 109.177 28.5453 109.414 28.5453V28.3453C109.183 28.3453 108.993 28.3324 108.845 28.3076L108.812 28.5049ZM109.414 28.5453C109.685 28.5453 109.995 28.4461 110.34 28.2599L110.246 28.0838C109.914 28.2622 109.638 28.3453 109.414 28.3453V28.5453ZM110.34 28.2599C110.685 28.0742 111.036 27.836 111.391 27.5463L111.265 27.3912C110.917 27.6744 110.578 27.905 110.246 28.0838L110.34 28.2599ZM111.39 27.5474C111.757 27.2587 112.118 26.944 112.472 26.6033L112.333 26.4592C111.984 26.7956 111.628 27.1058 111.266 27.3901L111.39 27.5474ZM112.473 26.602C112.825 26.2495 113.146 25.9165 113.433 25.6027L113.286 25.4676C113 25.7789 112.682 26.1098 112.332 26.4605L112.473 26.602ZM113.433 25.6029C113.733 25.2766 113.994 24.9827 114.217 24.721L114.064 24.5915C113.844 24.8507 113.585 25.1426 113.286 25.4675L113.433 25.6029ZM114.22 24.7171L114.669 24.1312L114.51 24.0095L114.061 24.5954L114.22 24.7171ZM114.529 24.1494L114.958 24.4815L115.081 24.3232L114.651 23.9912L114.529 24.1494ZM114.949 24.3316C114.791 24.4896 114.588 24.7058 114.34 24.9798L114.488 25.114C114.735 24.8411 114.936 24.6276 115.09 24.4731L114.949 24.3316ZM114.339 24.981L113.518 25.9185L113.669 26.0502L114.489 25.1127L114.339 24.981ZM113.52 25.9164C112.618 26.8901 111.813 27.6166 111.106 28.099C110.397 28.5826 109.795 28.8141 109.297 28.8141V29.0141C109.853 29.0141 110.495 28.7573 111.218 28.2643C111.943 27.7701 112.759 27.0318 113.667 26.0523L113.52 25.9164ZM109.297 28.8141H108.965V29.0141H109.297V28.8141ZM108.965 28.8141C108.869 28.8141 108.773 28.8021 108.677 28.778L108.628 28.972C108.74 29 108.852 29.0141 108.965 29.0141V28.8141ZM108.561 28.8333C107.49 31.1677 105.212 32.3492 101.68 32.3492V32.5492C105.257 32.5492 107.627 31.3479 108.743 28.9167L108.561 28.8333ZM101.68 32.3492C100.144 32.3492 99.0497 31.9811 98.3734 31.2672L98.2282 31.4047C98.9581 32.1751 100.117 32.5492 101.68 32.5492V32.3492ZM98.3744 31.2682C98.0944 30.9639 97.9516 30.5726 97.9516 30.0859H97.7516C97.7516 30.6149 97.9082 31.0569 98.2272 31.4036L98.3744 31.2682ZM97.9516 30.0859C97.9516 29.5949 98.0709 29.1863 98.3044 28.8544L98.1409 28.7393C97.8796 29.1106 97.7516 29.5614 97.7516 30.0859H97.9516ZM98.3068 28.851C98.5349 28.4961 98.8064 28.2061 99.1209 27.9796L99.0041 27.8173C98.6676 28.0596 98.3792 28.3685 98.1385 28.7428L98.3068 28.851ZM99.1212 27.9794C99.7768 27.5038 100.355 27.2758 100.859 27.2758V27.0758C100.296 27.0758 99.6763 27.3296 99.0038 27.8175L99.1212 27.9794ZM100.859 27.2758C101.106 27.2758 101.272 27.3344 101.376 27.4338C101.48 27.5324 101.541 27.6873 101.541 27.918H101.741C101.741 27.6538 101.671 27.4377 101.514 27.2888C101.358 27.1409 101.134 27.0758 100.859 27.0758V27.2758ZM101.541 27.9065C101.509 28.1843 101.274 28.4186 100.751 28.5844L100.811 28.775C101.356 28.6022 101.694 28.3287 101.74 27.9294L101.541 27.9065ZM100.752 28.5841C100.591 28.6336 100.438 28.6578 100.293 28.6578V28.8578C100.46 28.8578 100.633 28.8299 100.811 28.7753L100.752 28.5841ZM100.293 28.6578C100.146 28.6578 100.01 28.613 99.883 28.5207L99.7654 28.6824C99.9249 28.7984 100.102 28.8578 100.293 28.8578V28.6578ZM99.8842 28.5216C99.727 28.4036 99.5993 28.316 99.5027 28.2608L99.4035 28.4345C99.4892 28.4835 99.609 28.5651 99.7642 28.6816L99.8842 28.5216ZM99.3824 28.2769C99.3061 28.3532 99.21 28.443 99.0937 28.5464L99.2266 28.6958C99.3447 28.5909 99.4439 28.4983 99.5238 28.4184L99.3824 28.2769ZM99.0977 28.543C98.9614 28.652 98.8328 28.7808 98.7117 28.9289L98.8665 29.0555C98.9797 28.9171 99.0985 28.7985 99.2226 28.6992L99.0977 28.543ZM98.7115 28.929C98.4136 29.2947 98.2594 29.6809 98.2594 30.0859H98.4594C98.4594 29.7357 98.5916 29.3928 98.8666 29.0554L98.7115 28.929ZM98.2594 30.0859C98.2594 30.4758 98.393 30.7971 98.6638 31.0394L98.7971 30.8903C98.5732 30.6899 98.4594 30.4252 98.4594 30.0859H98.2594ZM98.6638 31.0394C98.9218 31.2702 99.2266 31.446 99.5767 31.5672L99.6421 31.3782C99.3151 31.265 99.0339 31.1021 98.7971 30.8903L98.6638 31.0394ZM99.5756 31.5668C100.095 31.7531 100.64 31.8461 101.211 31.8461V31.6461C100.662 31.6461 100.14 31.5568 99.6432 31.3785L99.5756 31.5668ZM101.211 31.8461C101.772 31.8461 102.351 31.7258 102.947 31.4874L102.873 31.3017C102.297 31.5321 101.743 31.6461 101.211 31.6461V31.8461ZM102.947 31.4877C103.56 31.2476 104.157 30.8488 104.737 30.295L104.599 30.1503C104.033 30.6902 103.458 31.0727 102.874 31.3014L102.947 31.4877ZM104.737 30.2951C106.337 28.7744 107.196 26.5261 107.326 23.5669L107.127 23.5581C106.997 26.4843 106.15 28.6762 104.599 30.1502L104.737 30.2951ZM107.326 23.5664C107.404 21.5917 107.645 20.0539 108.043 18.948L107.855 18.8802C107.446 20.0138 107.205 21.575 107.127 23.5586L107.326 23.5664ZM108.044 18.9457C108.062 18.891 108.069 18.8193 108.069 18.7383H107.869C107.869 18.8135 107.862 18.859 107.854 18.8824L108.044 18.9457ZM107.891 18.6752L103.282 24.3392L103.437 24.4655L108.046 18.8014L107.891 18.6752ZM103.283 24.3383C103.021 24.6517 102.839 24.8453 102.732 24.9289L102.854 25.0867C102.981 24.988 103.176 24.778 103.436 24.4664L103.283 24.3383ZM102.736 24.9259C102.728 24.9311 102.731 24.9292 102.724 24.9343C102.721 24.9364 102.721 24.9363 102.718 24.9384C102.716 24.9396 102.717 24.9392 102.715 24.9404C102.715 24.9406 102.714 24.9408 102.714 24.9409C102.714 24.9411 102.714 24.9413 102.713 24.9414C102.713 24.9416 102.713 24.9418 102.713 24.9419C102.712 24.9421 102.712 24.9423 102.712 24.9424C102.702 24.9492 102.699 24.9516 102.69 24.9579C102.687 24.9601 102.688 24.9595 102.685 24.9616C102.684 24.9618 102.684 24.9619 102.684 24.9621C102.684 24.9622 102.683 24.9624 102.683 24.9626C102.683 24.963 102.683 24.963 102.682 24.9635C102.681 24.964 102.681 24.9639 102.681 24.9644C102.68 24.9645 102.68 24.9647 102.68 24.9648C102.68 24.965 102.68 24.9651 102.679 24.9653C102.677 24.967 102.672 24.9707 102.669 24.9724C102.668 24.9735 102.666 24.9747 102.664 24.9758C102.664 24.9758 102.663 24.9766 102.663 24.9766C102.662 24.9771 102.663 24.977 102.662 24.9775C102.661 24.9784 102.661 24.9782 102.66 24.9792C102.658 24.9803 102.652 24.9847 102.65 24.9857C102.648 24.9874 102.635 24.9966 102.633 24.998C102.624 25.004 102.625 25.0035 102.617 25.0092C102.603 25.0186 102.601 25.0205 102.589 25.0284C102.579 25.0354 102.554 25.0528 102.553 25.0541C102.547 25.058 102.547 25.0579 102.543 25.0605C102.543 25.0608 102.541 25.0621 102.541 25.0621C102.541 25.0622 102.541 25.0624 102.541 25.0625C102.54 25.0625 102.54 25.0625 102.54 25.0626C102.54 25.0626 102.54 25.0626 102.54 25.0626C102.54 25.0626 102.54 25.0626 102.54 25.0626C102.54 25.0626 102.54 25.0626 102.598 25.1445C102.655 25.2265 102.655 25.2265 102.655 25.2265C102.655 25.2265 102.655 25.2265 102.655 25.2265V25.2264C102.655 25.2264 102.655 25.2264 102.655 25.2264C102.655 25.2264 102.655 25.2264 102.655 25.2264C102.655 25.2264 102.655 25.2264 102.655 25.2264C102.655 25.2264 102.655 25.2264 102.655 25.2264C102.655 25.2264 102.655 25.2264 102.655 25.2264C102.655 25.2264 102.655 25.2264 102.655 25.2264C102.655 25.2264 102.655 25.2264 102.655 25.2264C102.655 25.2263 102.655 25.2264 102.655 25.2263C102.655 25.2263 102.655 25.2262 102.655 25.2262C102.655 25.2261 102.655 25.2261 102.655 25.2261C102.655 25.2261 102.655 25.2261 102.656 25.2261C102.656 25.2261 102.656 25.2261 102.656 25.2261C102.656 25.2261 102.656 25.2261 102.656 25.226C102.656 25.226 102.656 25.226 102.656 25.226C102.656 25.226 102.656 25.2259 102.656 25.2259C102.656 25.2254 102.656 25.2258 102.657 25.2253C102.657 25.2251 102.657 25.225 102.657 25.2248C102.657 25.2248 102.657 25.2248 102.657 25.2248C102.657 25.2247 102.657 25.2247 102.658 25.2247C102.658 25.2247 102.658 25.2247 102.658 25.2246C102.658 25.2246 102.658 25.2246 102.658 25.2246C102.658 25.2246 102.658 25.2245 102.658 25.2245C102.658 25.2245 102.658 25.2245 102.658 25.2244C102.658 25.2244 102.658 25.2244 102.658 25.2244C102.658 25.2244 102.658 25.2243 102.658 25.2243C102.658 25.2242 102.661 25.2221 102.662 25.2216C102.664 25.2199 102.664 25.22 102.667 25.2179C102.667 25.2178 102.68 25.2087 102.682 25.2072C102.684 25.206 102.683 25.2069 102.685 25.2056C102.685 25.2052 102.685 25.2051 102.686 25.2048C102.686 25.2047 102.686 25.2046 102.686 25.2045C102.686 25.2045 102.687 25.2044 102.687 25.2043C102.687 25.2043 102.687 25.2042 102.687 25.2041C102.687 25.204 102.687 25.204 102.687 25.2039C102.688 25.2036 102.687 25.2037 102.688 25.2035C102.688 25.2032 102.688 25.2033 102.688 25.203C102.689 25.203 102.69 25.2022 102.69 25.2021C102.691 25.2015 102.691 25.201 102.692 25.2003C102.695 25.1982 102.695 25.1986 102.698 25.1964C102.704 25.1925 102.698 25.1963 102.704 25.1923C102.708 25.1896 102.713 25.1862 102.717 25.1832C102.728 25.1756 102.72 25.181 102.731 25.173C102.746 25.1629 102.748 25.1611 102.765 25.1495C102.765 25.1492 102.783 25.1369 102.784 25.1362C102.786 25.135 102.802 25.1233 102.805 25.1218C102.806 25.1204 102.808 25.1194 102.81 25.118C102.814 25.1151 102.811 25.1171 102.815 25.1142C102.825 25.1072 102.817 25.1133 102.827 25.1063C102.83 25.1041 102.847 25.0922 102.85 25.0897L102.736 24.9259ZM102.589 25.0449C102.45 25.0565 102.396 25.0196 102.372 24.9777L102.198 25.077C102.279 25.2173 102.433 25.2586 102.606 25.2442L102.589 25.0449ZM102.378 24.9902C102.382 24.9993 102.372 24.9865 102.4 24.9286C102.425 24.8765 102.47 24.8068 102.54 24.718L102.382 24.5945C102.309 24.688 102.253 24.7713 102.219 24.8429C102.188 24.9087 102.163 24.9903 102.192 25.0645L102.378 24.9902ZM102.538 24.7205C105.896 20.7114 107.786 18.4302 108.205 17.8809L108.045 17.7597C107.631 18.3042 105.745 20.5803 102.384 24.592L102.538 24.7205ZM108.223 17.8404C108.326 17.3376 108.46 16.9714 108.618 16.7332C108.775 16.4977 108.95 16.3969 109.141 16.3969V16.1969C108.863 16.1969 108.634 16.3499 108.452 16.6223C108.272 16.8919 108.132 17.2874 108.027 17.8002L108.223 17.8404ZM109.141 16.3969C109.344 16.3969 109.502 16.4502 109.624 16.5501L109.751 16.3953C109.586 16.2607 109.38 16.1969 109.141 16.1969V16.3969ZM109.628 16.5527C109.761 16.6525 109.822 16.7736 109.822 16.9219H110.022C110.022 16.7056 109.927 16.5272 109.747 16.3927L109.628 16.5527ZM109.822 16.9166C109.817 17.0177 109.772 17.1515 109.674 17.3213C109.577 17.4898 109.433 17.6863 109.24 17.9115L109.392 18.0416C109.59 17.8111 109.742 17.604 109.847 17.4209C109.952 17.2392 110.014 17.0734 110.022 16.9271L109.822 16.9166ZM109.24 17.9117C108.864 18.3532 108.626 18.6436 108.531 18.7786L108.695 18.8933C108.783 18.7678 109.014 18.4853 109.392 18.0415L109.24 17.9117ZM108.53 18.7805C108.449 18.9025 108.391 19.0163 108.361 19.121L108.553 19.1759C108.575 19.0983 108.622 19.0037 108.696 18.8914L108.53 18.7805ZM108.362 19.1168C108.333 19.2046 108.318 19.2934 108.318 19.3828H108.518C108.518 19.316 108.529 19.2485 108.552 19.1801L108.362 19.1168ZM108.318 19.3828V19.6172H108.518V19.3828H108.318ZM108.318 19.6135C108.305 19.9736 108.338 20.3972 108.417 20.8832L108.614 20.8512C108.537 20.3736 108.505 19.9639 108.518 19.6209L108.318 19.6135ZM108.417 20.8821L108.905 24.1243L109.103 24.0945L108.615 20.8523L108.417 20.8821ZM108.905 24.1253C109.19 25.8876 109.13 27.3005 108.734 28.3716L108.922 28.4409C109.334 27.3245 109.39 25.8729 109.103 24.0934L108.905 24.1253ZM124.785 14.3438L124.72 14.2681L124.717 14.2705L124.785 14.3438ZM124.16 14.7539L124.196 14.8472L124.201 14.8453L124.16 14.7539ZM122.578 14.5586L122.503 14.6251L122.507 14.6293L122.578 14.5586ZM122.852 12.4297L122.92 12.5031L122.923 12.4992L122.852 12.4297ZM125.078 12.2148L125.002 12.2794L125.005 12.2835L125.078 12.2148ZM125.234 13.7578L125.146 13.711L125.144 13.7152L125.234 13.7578ZM115.703 30.9648L115.658 30.8757L115.657 30.8761L115.703 30.9648ZM117.773 29.6562L117.834 29.7361L117.834 29.7359L117.773 29.6562ZM119.805 27.918L119.874 27.9901L119.875 27.9887L119.805 27.918ZM121.562 26.1602L121.633 26.2309L121.635 26.2291L121.562 26.1602ZM122.852 24.7539L122.927 24.8194L122.928 24.8182L122.852 24.7539ZM123.457 24.0508L123.524 23.9765L123.453 23.913L123.386 23.9801L123.457 24.0508ZM123.848 24.4023L123.918 24.4731L123.993 24.3985L123.915 24.328L123.848 24.4023ZM123.105 25.2422L123.029 25.1775L123.029 25.1777L123.105 25.2422ZM121.777 26.7266L121.85 26.7956L121.851 26.7947L121.777 26.7266ZM117.891 30.2227L117.833 30.1413L117.832 30.1415L117.891 30.2227ZM111.543 31.6094L111.49 31.6943L111.492 31.6953L111.543 31.6094ZM112.246 27.0391L112.329 27.095L112.33 27.0936L112.246 27.0391ZM113.691 25.0273L113.771 25.0882L113.771 25.0873L113.691 25.0273ZM115.84 22.3125L115.763 22.2479L115.763 22.249L115.84 22.3125ZM118.848 18.7578L118.872 18.6608L118.812 18.6457L118.771 18.6932L118.848 18.7578ZM121.543 18.7773L121.62 18.8416L121.783 18.6466L121.531 18.6781L121.543 18.7773ZM114.277 27.5664L114.356 27.6278L114.358 27.6262L114.277 27.5664ZM113.066 29.2266L113.15 29.2817L113.15 29.2808L113.066 29.2266ZM124.717 14.2705C124.543 14.432 124.344 14.5627 124.12 14.6625L124.201 14.8453C124.445 14.7368 124.663 14.594 124.853 14.417L124.717 14.2705ZM124.124 14.6607C123.903 14.7466 123.649 14.7906 123.359 14.7906V14.9906C123.669 14.9906 123.948 14.9435 124.196 14.8471L124.124 14.6607ZM123.359 14.7906C123.088 14.7906 122.852 14.6914 122.649 14.4879L122.507 14.6293C122.747 14.8685 123.032 14.9906 123.359 14.9906V14.7906ZM122.653 14.4922C122.459 14.2742 122.366 14.0369 122.366 13.7773H122.166C122.166 14.0907 122.28 14.3742 122.503 14.625L122.653 14.4922ZM122.366 13.7773C122.366 13.5031 122.415 13.2641 122.512 13.0582L122.331 12.973C122.22 13.2098 122.166 13.4787 122.166 13.7773H122.366ZM122.512 13.0582C122.611 12.8486 122.747 12.6637 122.92 12.503L122.784 12.3564C122.592 12.5342 122.441 12.7399 122.331 12.973L122.512 13.0582ZM122.923 12.4992C123.287 12.1233 123.672 11.9438 124.082 11.9438V11.7437C123.606 11.7437 123.172 11.9548 122.78 12.3602L122.923 12.4992ZM124.082 11.9438C124.521 11.9438 124.819 12.0625 125.002 12.2793L125.155 12.1504C124.92 11.8724 124.555 11.7437 124.082 11.7437V11.9438ZM125.005 12.2835C125.212 12.5018 125.31 12.7384 125.31 12.9961H125.51C125.51 12.6808 125.387 12.3966 125.151 12.1462L125.005 12.2835ZM125.31 12.9961C125.31 13.2686 125.255 13.506 125.146 13.711L125.323 13.8046C125.449 13.5669 125.51 13.2965 125.51 12.9961H125.31ZM125.144 13.7152C125.046 13.9233 124.905 14.1075 124.72 14.2682L124.851 14.4193C125.056 14.2414 125.214 14.0351 125.325 13.8004L125.144 13.7152ZM112.283 30.8867C112.283 31.0041 112.311 31.1115 112.37 31.2052C112.43 31.2985 112.516 31.3725 112.624 31.4293C112.838 31.5416 113.146 31.5922 113.535 31.5922V31.3922C113.157 31.3922 112.888 31.3419 112.717 31.2523C112.634 31.2083 112.576 31.1561 112.539 31.098C112.503 31.0403 112.483 30.9711 112.483 30.8867H112.283ZM113.535 31.5922C114.319 31.5922 115.058 31.4126 115.749 31.0536L115.657 30.8761C114.994 31.2202 114.287 31.3922 113.535 31.3922V31.5922ZM115.749 31.0539C116.444 30.6994 117.139 30.26 117.834 29.7361L117.713 29.5764C117.027 30.0941 116.342 30.5271 115.658 30.8757L115.749 31.0539ZM117.834 29.7359C118.54 29.1997 119.22 28.6177 119.874 27.9901L119.735 27.8458C119.087 28.4682 118.413 29.0451 117.713 29.5766L117.834 29.7359ZM119.875 27.9887L121.633 26.2309L121.492 26.0894L119.734 27.8473L119.875 27.9887ZM121.635 26.2291C122.156 25.6816 122.587 25.2116 122.927 24.8194L122.776 24.6884C122.439 25.0775 122.01 25.545 121.49 26.0912L121.635 26.2291ZM122.928 24.8182C123.268 24.4125 123.467 24.1827 123.528 24.1215L123.386 23.9801C123.317 24.0491 123.112 24.288 122.775 24.6896L122.928 24.8182ZM123.39 24.1251L123.781 24.4767L123.915 24.328L123.524 23.9765L123.39 24.1251ZM123.777 24.3316C123.643 24.4652 123.393 24.7484 123.029 25.1775L123.182 25.3069C123.547 24.8766 123.792 24.5999 123.918 24.4731L123.777 24.3316ZM123.029 25.1777C122.679 25.5927 122.237 26.0862 121.704 26.6584L121.851 26.7947C122.385 26.2211 122.829 25.725 123.182 25.3067L123.029 25.1777ZM121.705 26.6576C121.173 27.2159 120.575 27.8071 119.912 28.4311L120.049 28.5767C120.714 27.9507 121.314 27.357 121.85 26.7956L121.705 26.6576ZM119.912 28.4311C119.251 29.0531 118.558 29.6231 117.833 30.1413L117.949 30.304C118.682 29.7805 119.382 29.2048 120.049 28.5767L119.912 28.4311ZM117.832 30.1415C116.16 31.3474 114.709 31.9391 113.477 31.9391V32.1391C114.77 32.1391 116.262 31.5198 117.949 30.3038L117.832 30.1415ZM113.477 31.9391C112.68 31.9391 112.055 31.7975 111.594 31.5234L111.492 31.6953C111.994 31.9942 112.659 32.1391 113.477 32.1391V31.9391ZM111.596 31.5244C111.128 31.2334 110.92 30.9216 110.92 30.5938H110.72C110.72 31.0211 110.995 31.3864 111.49 31.6943L111.596 31.5244ZM110.92 30.5938C110.92 30.2229 110.959 29.893 111.034 29.6034L110.841 29.5529C110.76 29.8622 110.72 30.2094 110.72 30.5938H110.92ZM111.034 29.6034C111.11 29.3131 111.25 28.9619 111.457 28.5486L111.278 28.4592C111.068 28.8793 110.921 29.2442 110.841 29.5529L111.034 29.6034ZM111.457 28.5486C111.662 28.1371 111.953 27.6527 112.329 27.095L112.163 26.9831C111.784 27.5452 111.489 28.0374 111.278 28.4592L111.457 28.5486ZM112.33 27.0936C112.693 26.5366 113.173 25.8683 113.771 25.0882L113.612 24.9665C113.012 25.7489 112.529 26.4217 112.162 26.9845L112.33 27.0936ZM113.771 25.0873C114.356 24.3076 115.071 23.4039 115.917 22.376L115.763 22.249C114.916 23.2784 114.199 24.1846 113.611 24.9673L113.771 25.0873ZM115.916 22.3771L118.924 18.8224L118.771 18.6932L115.764 22.2479L115.916 22.3771ZM118.823 18.8548C118.994 18.8974 119.325 18.9164 119.805 18.9164V18.7164C119.321 18.7164 119.014 18.6964 118.872 18.6608L118.823 18.8548ZM119.805 18.9164H120.723V18.7164H119.805V18.9164ZM120.723 18.9164C121.063 18.9164 121.341 18.9033 121.555 18.8766L121.531 18.6781C121.328 18.7034 121.059 18.7164 120.723 18.7164V18.9164ZM121.466 18.7131C117.158 23.8547 114.733 26.7875 114.197 27.5066L114.358 27.6262C114.889 26.913 117.308 23.9864 121.62 18.8416L121.466 18.7131ZM114.198 27.505C113.651 28.2089 113.245 28.765 112.982 29.1723L113.15 29.2808C113.408 28.8809 113.81 28.3302 114.356 27.6278L114.198 27.505ZM112.983 29.1715C112.525 29.8646 112.283 30.439 112.283 30.8867H112.483C112.483 30.5011 112.696 29.9688 113.15 29.2817L112.983 29.1715ZM130.293 28.3281L130.214 28.2662L130.213 28.268L130.293 28.3281ZM131.523 26.7656L131.602 26.8275L131.685 26.7224L131.561 26.6728L131.523 26.7656ZM131.328 26.6875L131.365 26.5947L131.297 26.5673L131.25 26.6245L131.328 26.6875ZM125.137 31.7656L125.169 31.8603L125.17 31.8598L125.137 31.7656ZM123.75 23.7383L123.825 23.8043L123.826 23.8034L123.75 23.7383ZM130.898 18.8359L130.879 18.7379L130.878 18.7381L130.898 18.8359ZM133.926 18.7383L133.899 18.8349L133.905 18.836L133.926 18.7383ZM134.707 19.0312L134.761 18.9469L134.758 18.9451L134.707 19.0312ZM135.176 21.375L135.083 21.3379L135.253 21.4379L135.176 21.375ZM137.09 19.0117L137.118 18.9158L137.054 18.8969L137.012 18.9488L137.09 19.0117ZM139.727 19.0898L139.804 19.1537L139.972 18.9509L139.711 18.991L139.727 19.0898ZM133.145 27.0195L133.22 27.0846L133.221 27.0834L133.145 27.0195ZM133.242 31.043L133.2 30.9521L133.2 30.9524L133.242 31.043ZM137.031 28.3281L136.963 28.2551L136.962 28.2559L137.031 28.3281ZM138.711 26.6484L138.639 26.5795L138.638 26.5804L138.711 26.6484ZM140.078 25.125L140.003 25.0585L140.001 25.061L140.078 25.125ZM141.016 24.0703L141.079 23.9926L141.004 23.9325L140.941 24.0039L141.016 24.0703ZM141.426 24.4023L141.501 24.4684L141.57 24.3902L141.489 24.3246L141.426 24.4023ZM140.43 25.5352L140.355 25.4691L140.354 25.4697L140.43 25.5352ZM125.703 25.0078L125.626 24.9438L125.626 24.9442L125.703 25.0078ZM132.051 25.1445L132.127 25.2094L132.128 25.2085L132.051 25.1445ZM133.691 23.1719L133.769 23.2362L133.775 23.2269L133.691 23.1719ZM128.164 22.3906L128.097 22.3167L128.096 22.317L128.164 22.3906ZM131.113 31.9391C130.469 31.9391 130.003 31.8387 129.701 31.6513C129.407 31.4689 129.26 31.1994 129.26 30.8281H129.06C129.06 31.2641 129.239 31.6001 129.596 31.8213C129.945 32.0376 130.455 32.1391 131.113 32.1391V31.9391ZM129.26 30.8281C129.26 30.198 129.621 29.3868 130.373 28.3883L130.213 28.268C129.455 29.2746 129.06 30.1302 129.06 30.8281H129.26ZM130.372 28.39L131.602 26.8275L131.445 26.7038L130.214 28.2663L130.372 28.39ZM131.561 26.6728L131.365 26.5947L131.291 26.7803L131.486 26.8585L131.561 26.6728ZM131.25 26.6245C129.068 29.3142 127.018 30.9903 125.103 31.6714L125.17 31.8598C127.136 31.1607 129.214 29.4514 131.406 26.7505L131.25 26.6245ZM125.104 31.671C124.577 31.8512 124.126 31.9391 123.75 31.9391V32.1391C124.155 32.1391 124.629 32.0447 125.169 31.8603L125.104 31.671ZM123.75 31.9391C122.966 31.9391 122.396 31.7307 122.021 31.331C121.645 30.93 121.448 30.3194 121.448 29.4805H121.248C121.248 30.3472 121.451 31.0159 121.875 31.4679C122.301 31.921 122.932 32.1391 123.75 32.1391V31.9391ZM121.448 29.4805C121.448 27.5044 122.236 25.613 123.825 23.8043L123.675 23.6723C122.061 25.5094 121.248 27.4461 121.248 29.4805H121.448ZM123.826 23.8034C126.188 21.0519 128.553 19.4353 130.919 18.9338L130.878 18.7381C128.452 19.2522 126.052 20.9038 123.674 23.6731L123.826 23.8034ZM130.918 18.934C131.63 18.7915 132.235 18.7211 132.734 18.7211V18.5211C132.218 18.5211 131.599 18.5939 130.879 18.7379L130.918 18.934ZM132.734 18.7211C133.239 18.7211 133.626 18.76 133.899 18.8348L133.952 18.6418C133.653 18.5603 133.246 18.5211 132.734 18.5211V18.7211ZM133.905 18.836C134.196 18.8993 134.446 18.9935 134.656 19.1174L134.758 18.9451C134.526 18.8085 134.255 18.7075 133.947 18.6406L133.905 18.836ZM134.653 19.1155C135.102 19.402 135.31 19.7449 135.31 20.1445H135.51C135.51 19.6588 135.25 19.2595 134.761 18.947L134.653 19.1155ZM135.31 20.1445C135.31 20.5618 135.234 20.9593 135.083 21.3379L135.269 21.4121C135.43 21.0094 135.51 20.5867 135.51 20.1445H135.31ZM135.253 21.4379L137.168 19.0747L137.012 18.9488L135.098 21.3121L135.253 21.4379ZM137.061 19.1076C137.42 19.2139 137.755 19.268 138.066 19.268V19.068C137.778 19.068 137.463 19.0179 137.118 18.9158L137.061 19.1076ZM138.066 19.268C138.835 19.268 139.395 19.242 139.742 19.1887L139.711 18.991C139.381 19.0418 138.834 19.068 138.066 19.068V19.268ZM139.65 19.026L133.068 26.9557L133.221 27.0834L139.804 19.1537L139.65 19.026ZM133.069 26.9545C132.286 27.8679 131.696 28.6488 131.301 29.2966C130.909 29.9405 130.701 30.4669 130.701 30.8672H130.901C130.901 30.5253 131.083 30.0393 131.472 29.4007C131.859 28.7659 132.441 27.9941 133.22 27.0846L133.069 26.9545ZM130.701 30.8672C130.701 31.0959 130.769 31.2841 130.922 31.4124C131.071 31.538 131.284 31.5922 131.543 31.5922V31.3922C131.307 31.3922 131.149 31.3422 131.051 31.2594C130.956 31.1795 130.901 31.0552 130.901 30.8672H130.701ZM131.543 31.5922C132.057 31.5922 132.639 31.4367 133.285 31.1335L133.2 30.9524C132.57 31.2481 132.018 31.3922 131.543 31.3922V31.5922ZM133.284 31.1338C133.942 30.8312 134.592 30.4436 135.235 29.9712L135.117 29.81C134.483 30.2752 133.845 30.6557 133.2 30.9521L133.284 31.1338ZM135.235 29.9712C135.877 29.4998 136.498 28.9762 137.1 28.4004L136.962 28.2559C136.366 28.8259 135.751 29.344 135.117 29.81L135.235 29.9712ZM137.1 28.4011C137.713 27.8268 138.275 27.2653 138.784 26.7165L138.638 26.5804C138.132 27.1254 137.573 27.6836 136.963 28.2551L137.1 28.4011ZM138.783 26.7174C139.305 26.1693 139.763 25.6598 140.155 25.189L140.001 25.061C139.612 25.5277 139.158 26.0338 138.639 26.5795L138.783 26.7174ZM140.153 25.1914L141.09 24.1367L140.941 24.0039L140.003 25.0586L140.153 25.1914ZM140.953 24.148L141.363 24.4801L141.489 24.3246L141.079 23.9926L140.953 24.148ZM141.351 24.3363L140.355 25.4691L140.505 25.6012L141.501 24.4684L141.351 24.3363ZM140.354 25.4697C138.482 27.6343 136.774 29.2536 135.231 30.3311C133.686 31.4092 132.315 31.9391 131.113 31.9391V32.1391C132.373 32.1391 133.784 31.5849 135.345 30.4951C136.907 29.4046 138.627 27.772 140.505 25.6006L140.354 25.4697ZM125.626 24.9442C123.788 27.1731 122.849 29.0198 122.849 30.4766H123.049C123.049 29.0948 123.946 27.2956 125.78 25.0714L125.626 24.9442ZM122.849 30.4766C122.849 30.815 122.925 31.0876 123.095 31.2759C123.266 31.4662 123.517 31.5531 123.828 31.5531V31.3531C123.553 31.3531 123.365 31.2773 123.243 31.1421C123.12 31.0049 123.049 30.7891 123.049 30.4766H122.849ZM123.828 31.5531C124.812 31.5531 125.995 31.0105 127.37 29.9553C128.749 28.8978 130.334 27.3148 132.127 25.2094L131.975 25.0797C130.186 27.18 128.611 28.7513 127.249 29.7966C125.883 30.8443 124.745 31.3531 123.828 31.3531V31.5531ZM132.128 25.2085L133.768 23.2358L133.615 23.1079L131.974 25.0806L132.128 25.2085ZM133.775 23.2269C134.167 22.6321 134.463 22.1162 134.661 21.6801C134.859 21.2459 134.963 20.882 134.963 20.5938H134.763C134.763 20.8393 134.673 21.1721 134.479 21.5973C134.287 22.0205 133.997 22.5268 133.608 23.1168L133.775 23.2269ZM134.963 20.5938C134.963 20.1226 134.845 19.7509 134.592 19.4976C134.339 19.2444 133.967 19.1266 133.496 19.1266V19.3266C133.936 19.3266 134.248 19.4366 134.451 19.6391C134.653 19.8416 134.763 20.1534 134.763 20.5938H134.963ZM133.496 19.1266C132.851 19.1266 132.079 19.4005 131.184 19.9316C130.288 20.4637 129.258 21.2595 128.097 22.3167L128.231 22.4646C129.388 21.4124 130.406 20.6262 131.286 20.1036C132.169 19.5799 132.904 19.3266 133.496 19.3266V19.1266ZM128.096 22.317C127.298 23.0497 126.475 23.9255 125.626 24.9438L125.78 25.0718C126.624 24.0589 127.441 23.1899 128.232 22.4643L128.096 22.317Z" fill="#730619"/>
</svg>
